
<mxfile host="app.diagrams.net" modified="2023-03-23T21:51:33.787Z" agent="5.0 (Macintosh; Intel Mac OS X 10_15_7) AppleWebKit/537.36 (KHTML, like Gecko) Chrome/110.0.0.0 Safari/537.36 Edg/110.0.1587.63" etag="Mo5YK7Tp_Jzrclr4f1lN" version="21.0.2" type="device" pages="12">
  
  <diagram id="kOFSm71Pu6C5OlaOIeIC" name="High level system design">
    <mxGraphModel dx="2597" dy="1723" grid="1" gridSize="10" guides="1" tooltips="1" connect="1" arrows="1" fold="1" page="1" pageScale="1" pageWidth="850" pageHeight="1100" math="0" shadow="0">
      <root>
        <mxCell id="0" />
        <mxCell id="1" parent="0" />
        <mxCell id="NQ-_C5Dc0-6gS3pQRxoH-5" value="" style="group" parent="1" vertex="1" connectable="0">
          <mxGeometry x="-1120" y="180" width="240" height="400" as="geometry" />
        </mxCell>
        <mxCell id="NQ-_C5Dc0-6gS3pQRxoH-3" value="" style="rounded=0;whiteSpace=wrap;html=1;" parent="NQ-_C5Dc0-6gS3pQRxoH-5" vertex="1">
          <mxGeometry width="240" height="400" as="geometry" />
        </mxCell>
        <mxCell id="NQ-_C5Dc0-6gS3pQRxoH-2" value="" style="shape=image;html=1;verticalAlign=top;verticalLabelPosition=bottom;labelBackgroundColor=#ffffff;imageAspect=0;aspect=fixed;image=https://cdn0.iconfinder.com/data/icons/devices-42/512/Normal_LCD-128.png" parent="NQ-_C5Dc0-6gS3pQRxoH-5" vertex="1">
          <mxGeometry x="57.56" y="137.56538461538463" width="124.8780487804878" height="124.8780487804878" as="geometry" />
        </mxCell>
        <mxCell id="NQ-_C5Dc0-6gS3pQRxoH-4" value="&lt;font style=&quot;font-size: 24px;&quot;&gt;&lt;b&gt;Client&lt;/b&gt;&lt;/font&gt;" style="text;html=1;strokeColor=none;fillColor=none;align=center;verticalAlign=middle;whiteSpace=wrap;rounded=0;" parent="NQ-_C5Dc0-6gS3pQRxoH-5" vertex="1">
          <mxGeometry x="90" y="348.71794871794873" width="60" height="30.76923076923077" as="geometry" />
        </mxCell>
        <mxCell id="NQ-_C5Dc0-6gS3pQRxoH-21" value="" style="group" parent="1" vertex="1" connectable="0">
          <mxGeometry x="-730" y="45" width="360" height="590" as="geometry" />
        </mxCell>
        <mxCell id="NQ-_C5Dc0-6gS3pQRxoH-18" value="" style="rounded=0;whiteSpace=wrap;html=1;fontSize=24;" parent="NQ-_C5Dc0-6gS3pQRxoH-21" vertex="1">
          <mxGeometry width="360" height="590" as="geometry" />
        </mxCell>
        <mxCell id="NQ-_C5Dc0-6gS3pQRxoH-9" value="" style="group" parent="NQ-_C5Dc0-6gS3pQRxoH-21" vertex="1" connectable="0">
          <mxGeometry x="85" y="40" width="190" height="140" as="geometry" />
        </mxCell>
        <mxCell id="NQ-_C5Dc0-6gS3pQRxoH-7" value="" style="rounded=0;whiteSpace=wrap;html=1;fontSize=24;" parent="NQ-_C5Dc0-6gS3pQRxoH-9" vertex="1">
          <mxGeometry width="190" height="140" as="geometry" />
        </mxCell>
        <mxCell id="NQ-_C5Dc0-6gS3pQRxoH-8" value="API Web Application Instance" style="text;html=1;strokeColor=none;fillColor=none;align=center;verticalAlign=middle;whiteSpace=wrap;rounded=0;fontSize=24;" parent="NQ-_C5Dc0-6gS3pQRxoH-9" vertex="1">
          <mxGeometry x="47.5" y="35" width="95" height="70" as="geometry" />
        </mxCell>
        <mxCell id="NQ-_C5Dc0-6gS3pQRxoH-12" value="" style="group" parent="NQ-_C5Dc0-6gS3pQRxoH-21" vertex="1" connectable="0">
          <mxGeometry x="85" y="215" width="190" height="140" as="geometry" />
        </mxCell>
        <mxCell id="NQ-_C5Dc0-6gS3pQRxoH-13" value="" style="rounded=0;whiteSpace=wrap;html=1;fontSize=24;" parent="NQ-_C5Dc0-6gS3pQRxoH-12" vertex="1">
          <mxGeometry width="190" height="140" as="geometry" />
        </mxCell>
        <mxCell id="NQ-_C5Dc0-6gS3pQRxoH-14" value="API Web Application Instance" style="text;html=1;strokeColor=none;fillColor=none;align=center;verticalAlign=middle;whiteSpace=wrap;rounded=0;fontSize=24;" parent="NQ-_C5Dc0-6gS3pQRxoH-12" vertex="1">
          <mxGeometry x="47.5" y="35" width="95" height="70" as="geometry" />
        </mxCell>
        <mxCell id="NQ-_C5Dc0-6gS3pQRxoH-15" value="" style="group" parent="NQ-_C5Dc0-6gS3pQRxoH-21" vertex="1" connectable="0">
          <mxGeometry x="85" y="400" width="190" height="140" as="geometry" />
        </mxCell>
        <mxCell id="NQ-_C5Dc0-6gS3pQRxoH-16" value="" style="rounded=0;whiteSpace=wrap;html=1;fontSize=24;" parent="NQ-_C5Dc0-6gS3pQRxoH-15" vertex="1">
          <mxGeometry width="190" height="140" as="geometry" />
        </mxCell>
        <mxCell id="NQ-_C5Dc0-6gS3pQRxoH-17" value="API Web Application Instance" style="text;html=1;strokeColor=none;fillColor=none;align=center;verticalAlign=middle;whiteSpace=wrap;rounded=0;fontSize=24;" parent="NQ-_C5Dc0-6gS3pQRxoH-15" vertex="1">
          <mxGeometry x="47.5" y="35" width="95" height="70" as="geometry" />
        </mxCell>
        <mxCell id="NQ-_C5Dc0-6gS3pQRxoH-22" value="Rabbit MQ Message Broker" style="rounded=0;whiteSpace=wrap;html=1;fontSize=24;" parent="1" vertex="1">
          <mxGeometry x="-290" y="265" width="170" height="150" as="geometry" />
        </mxCell>
        <mxCell id="NQ-_C5Dc0-6gS3pQRxoH-28" value="" style="group" parent="1" vertex="1" connectable="0">
          <mxGeometry x="-40" y="90" width="290" height="500" as="geometry" />
        </mxCell>
        <mxCell id="NQ-_C5Dc0-6gS3pQRxoH-27" value="" style="rounded=0;whiteSpace=wrap;html=1;fontSize=24;" parent="NQ-_C5Dc0-6gS3pQRxoH-28" vertex="1">
          <mxGeometry width="290" height="500" as="geometry" />
        </mxCell>
        <mxCell id="NQ-_C5Dc0-6gS3pQRxoH-24" value="Job Runner Instance" style="rounded=0;whiteSpace=wrap;html=1;fontSize=24;" parent="NQ-_C5Dc0-6gS3pQRxoH-28" vertex="1">
          <mxGeometry x="75" y="60" width="140" height="110" as="geometry" />
        </mxCell>
        <mxCell id="NQ-_C5Dc0-6gS3pQRxoH-25" value="Job Runner Instance" style="rounded=0;whiteSpace=wrap;html=1;fontSize=24;" parent="NQ-_C5Dc0-6gS3pQRxoH-28" vertex="1">
          <mxGeometry x="75" y="200" width="140" height="110" as="geometry" />
        </mxCell>
        <mxCell id="NQ-_C5Dc0-6gS3pQRxoH-26" value="Job Runner Instance" style="rounded=0;whiteSpace=wrap;html=1;fontSize=24;" parent="NQ-_C5Dc0-6gS3pQRxoH-28" vertex="1">
          <mxGeometry x="75" y="345" width="140" height="110" as="geometry" />
        </mxCell>
        <mxCell id="NQ-_C5Dc0-6gS3pQRxoH-29" value="" style="endArrow=none;html=1;rounded=0;fontSize=24;" parent="1" source="NQ-_C5Dc0-6gS3pQRxoH-3" target="NQ-_C5Dc0-6gS3pQRxoH-18" edge="1">
          <mxGeometry width="50" height="50" relative="1" as="geometry">
            <mxPoint x="-460" y="480" as="sourcePoint" />
            <mxPoint x="-410" y="430" as="targetPoint" />
          </mxGeometry>
        </mxCell>
        <mxCell id="NQ-_C5Dc0-6gS3pQRxoH-30" value="" style="endArrow=none;html=1;rounded=0;fontSize=24;" parent="1" source="NQ-_C5Dc0-6gS3pQRxoH-18" target="NQ-_C5Dc0-6gS3pQRxoH-22" edge="1">
          <mxGeometry width="50" height="50" relative="1" as="geometry">
            <mxPoint x="-460" y="480" as="sourcePoint" />
            <mxPoint x="-410" y="430" as="targetPoint" />
          </mxGeometry>
        </mxCell>
        <mxCell id="NQ-_C5Dc0-6gS3pQRxoH-31" value="" style="endArrow=none;html=1;rounded=0;fontSize=24;" parent="1" source="NQ-_C5Dc0-6gS3pQRxoH-27" target="NQ-_C5Dc0-6gS3pQRxoH-22" edge="1">
          <mxGeometry width="50" height="50" relative="1" as="geometry">
            <mxPoint x="-460" y="480" as="sourcePoint" />
            <mxPoint x="-410" y="430" as="targetPoint" />
          </mxGeometry>
        </mxCell>
        <mxCell id="NQ-_C5Dc0-6gS3pQRxoH-34" value="" style="group" parent="1" vertex="1" connectable="0">
          <mxGeometry x="-290" y="670" width="217.5" height="290" as="geometry" />
        </mxCell>
        <mxCell id="NQ-_C5Dc0-6gS3pQRxoH-32" value="" style="shape=cylinder3;whiteSpace=wrap;html=1;boundedLbl=1;backgroundOutline=1;size=15;fontSize=24;" parent="NQ-_C5Dc0-6gS3pQRxoH-34" vertex="1">
          <mxGeometry width="217.5" height="290" as="geometry" />
        </mxCell>
        <mxCell id="NQ-_C5Dc0-6gS3pQRxoH-33" value="Database" style="text;html=1;strokeColor=none;fillColor=none;align=center;verticalAlign=middle;whiteSpace=wrap;rounded=0;fontSize=24;" parent="NQ-_C5Dc0-6gS3pQRxoH-34" vertex="1">
          <mxGeometry x="78.75" y="130" width="60" height="30" as="geometry" />
        </mxCell>
        <mxCell id="NQ-_C5Dc0-6gS3pQRxoH-35" value="" style="endArrow=none;html=1;rounded=0;fontSize=24;" parent="1" source="NQ-_C5Dc0-6gS3pQRxoH-32" target="NQ-_C5Dc0-6gS3pQRxoH-18" edge="1">
          <mxGeometry width="50" height="50" relative="1" as="geometry">
            <mxPoint x="-460" y="760" as="sourcePoint" />
            <mxPoint x="-410" y="710" as="targetPoint" />
          </mxGeometry>
        </mxCell>
        <mxCell id="NQ-_C5Dc0-6gS3pQRxoH-36" value="" style="endArrow=none;html=1;rounded=0;fontSize=24;" parent="1" source="NQ-_C5Dc0-6gS3pQRxoH-32" target="NQ-_C5Dc0-6gS3pQRxoH-27" edge="1">
          <mxGeometry width="50" height="50" relative="1" as="geometry">
            <mxPoint x="-460" y="760" as="sourcePoint" />
            <mxPoint x="-410" y="710" as="targetPoint" />
          </mxGeometry>
        </mxCell>
        <mxCell id="NQ-_C5Dc0-6gS3pQRxoH-39" value="" style="group" parent="1" vertex="1" connectable="0">
          <mxGeometry x="-650" y="760" width="230" height="100" as="geometry" />
        </mxCell>
        <mxCell id="NQ-_C5Dc0-6gS3pQRxoH-37" value="" style="rounded=0;whiteSpace=wrap;html=1;fontSize=24;" parent="NQ-_C5Dc0-6gS3pQRxoH-39" vertex="1">
          <mxGeometry width="230" height="100" as="geometry" />
        </mxCell>
        <mxCell id="NQ-_C5Dc0-6gS3pQRxoH-38" value="Data analytic service" style="text;html=1;strokeColor=none;fillColor=none;align=center;verticalAlign=middle;whiteSpace=wrap;rounded=0;fontSize=24;" parent="NQ-_C5Dc0-6gS3pQRxoH-39" vertex="1">
          <mxGeometry x="85" y="35" width="60" height="30" as="geometry" />
        </mxCell>
        <mxCell id="NQ-_C5Dc0-6gS3pQRxoH-40" value="" style="endArrow=none;html=1;rounded=0;fontSize=24;" parent="1" source="NQ-_C5Dc0-6gS3pQRxoH-37" target="NQ-_C5Dc0-6gS3pQRxoH-32" edge="1">
          <mxGeometry width="50" height="50" relative="1" as="geometry">
            <mxPoint x="-580" y="630" as="sourcePoint" />
            <mxPoint x="-530" y="580" as="targetPoint" />
          </mxGeometry>
        </mxCell>
        <mxCell id="NQ-_C5Dc0-6gS3pQRxoH-41" value="CDN" style="rounded=0;whiteSpace=wrap;html=1;fontSize=24;" parent="1" vertex="1">
          <mxGeometry x="-740" y="-150" width="120" height="60" as="geometry" />
        </mxCell>
        <mxCell id="NQ-_C5Dc0-6gS3pQRxoH-42" value="" style="endArrow=none;html=1;rounded=0;fontSize=24;" parent="1" source="NQ-_C5Dc0-6gS3pQRxoH-3" target="NQ-_C5Dc0-6gS3pQRxoH-41" edge="1">
          <mxGeometry width="50" height="50" relative="1" as="geometry">
            <mxPoint x="-470" y="170" as="sourcePoint" />
            <mxPoint x="-420" y="120" as="targetPoint" />
          </mxGeometry>
        </mxCell>
      </root>
    </mxGraphModel>
  </diagram>
  <diagram name="UseCase&lt;Authentication&gt;" id="QXghKHkwAaJYsyiMJASz">
    <mxGraphModel dx="2061" dy="820" grid="1" gridSize="10" guides="1" tooltips="1" connect="1" arrows="1" fold="1" page="1" pageScale="1" pageWidth="850" pageHeight="1100" math="0" shadow="0">
      <root>
        <mxCell id="0" />
        <mxCell id="1" parent="0" />
        <mxCell id="STKIt9uEF0c347pvhOQ_-19" value="&lt;span style=&quot;font-size: 24px;&quot;&gt;Profile &amp;amp; Authentication&lt;/span&gt;" style="shape=rect;html=1;verticalAlign=top;fontStyle=1;whiteSpace=wrap;align=center;fontSize=12;" vertex="1" parent="1">
          <mxGeometry x="150" y="160" width="560" height="580" as="geometry" />
        </mxCell>
        <mxCell id="STKIt9uEF0c347pvhOQ_-1" value="Login" style="ellipse;whiteSpace=wrap;html=1;fontSize=24;" vertex="1" parent="1">
          <mxGeometry x="415" y="200" width="140" height="70" as="geometry" />
        </mxCell>
        <mxCell id="STKIt9uEF0c347pvhOQ_-2" value="Register" style="ellipse;whiteSpace=wrap;html=1;fontSize=24;" vertex="1" parent="1">
          <mxGeometry x="415" y="290" width="140" height="70" as="geometry" />
        </mxCell>
        <mxCell id="STKIt9uEF0c347pvhOQ_-6" value="Profile" style="ellipse;whiteSpace=wrap;html=1;fontSize=24;" vertex="1" parent="1">
          <mxGeometry x="230" y="480" width="140" height="70" as="geometry" />
        </mxCell>
        <mxCell id="STKIt9uEF0c347pvhOQ_-7" value="Edit profile" style="ellipse;whiteSpace=wrap;html=1;fontSize=24;" vertex="1" parent="1">
          <mxGeometry x="500" y="370" width="140" height="70" as="geometry" />
        </mxCell>
        <mxCell id="STKIt9uEF0c347pvhOQ_-8" value="View profile" style="ellipse;whiteSpace=wrap;html=1;fontSize=24;" vertex="1" parent="1">
          <mxGeometry x="500" y="460" width="140" height="70" as="geometry" />
        </mxCell>
        <mxCell id="STKIt9uEF0c347pvhOQ_-9" value="Change avatar" style="ellipse;whiteSpace=wrap;html=1;fontSize=24;" vertex="1" parent="1">
          <mxGeometry x="500" y="540" width="140" height="70" as="geometry" />
        </mxCell>
        <mxCell id="STKIt9uEF0c347pvhOQ_-10" value="Change password" style="ellipse;whiteSpace=wrap;html=1;fontSize=24;" vertex="1" parent="1">
          <mxGeometry x="470" y="630" width="160" height="80" as="geometry" />
        </mxCell>
        <mxCell id="STKIt9uEF0c347pvhOQ_-14" value="&amp;lt;&amp;lt;include&amp;gt;&amp;gt;" style="edgeStyle=none;html=1;endArrow=open;verticalAlign=bottom;dashed=1;labelBackgroundColor=none;rounded=0;fontSize=12;" edge="1" parent="1" source="STKIt9uEF0c347pvhOQ_-6" target="STKIt9uEF0c347pvhOQ_-7">
          <mxGeometry width="160" relative="1" as="geometry">
            <mxPoint x="350" y="580" as="sourcePoint" />
            <mxPoint x="510" y="580" as="targetPoint" />
          </mxGeometry>
        </mxCell>
        <mxCell id="STKIt9uEF0c347pvhOQ_-15" value="&amp;lt;&amp;lt;include&amp;gt;&amp;gt;" style="edgeStyle=none;html=1;endArrow=open;verticalAlign=bottom;dashed=1;labelBackgroundColor=none;rounded=0;fontSize=12;" edge="1" parent="1" source="STKIt9uEF0c347pvhOQ_-6" target="STKIt9uEF0c347pvhOQ_-8">
          <mxGeometry width="160" relative="1" as="geometry">
            <mxPoint x="350" y="580" as="sourcePoint" />
            <mxPoint x="510" y="580" as="targetPoint" />
          </mxGeometry>
        </mxCell>
        <mxCell id="STKIt9uEF0c347pvhOQ_-16" value="&amp;lt;&amp;lt;include&amp;gt;&amp;gt;" style="edgeStyle=none;html=1;endArrow=open;verticalAlign=bottom;dashed=1;labelBackgroundColor=none;rounded=0;fontSize=12;" edge="1" parent="1" source="STKIt9uEF0c347pvhOQ_-6" target="STKIt9uEF0c347pvhOQ_-9">
          <mxGeometry width="160" relative="1" as="geometry">
            <mxPoint x="350" y="580" as="sourcePoint" />
            <mxPoint x="510" y="580" as="targetPoint" />
          </mxGeometry>
        </mxCell>
        <mxCell id="STKIt9uEF0c347pvhOQ_-17" value="&amp;lt;&amp;lt;include&amp;gt;&amp;gt;" style="edgeStyle=none;html=1;endArrow=open;verticalAlign=bottom;dashed=1;labelBackgroundColor=none;rounded=0;fontSize=12;" edge="1" parent="1" source="STKIt9uEF0c347pvhOQ_-6" target="STKIt9uEF0c347pvhOQ_-10">
          <mxGeometry width="160" relative="1" as="geometry">
            <mxPoint x="350" y="580" as="sourcePoint" />
            <mxPoint x="510" y="580" as="targetPoint" />
          </mxGeometry>
        </mxCell>
        <mxCell id="STKIt9uEF0c347pvhOQ_-20" value="User" style="shape=umlActor;html=1;verticalLabelPosition=bottom;verticalAlign=top;align=center;fontSize=24;" vertex="1" parent="1">
          <mxGeometry x="-50" y="420" width="30" height="60" as="geometry" />
        </mxCell>
        <mxCell id="STKIt9uEF0c347pvhOQ_-21" value="" style="edgeStyle=none;html=1;endArrow=none;verticalAlign=bottom;rounded=0;fontSize=24;exitX=0.5;exitY=0.5;exitDx=0;exitDy=0;exitPerimeter=0;" edge="1" parent="1" source="STKIt9uEF0c347pvhOQ_-20" target="STKIt9uEF0c347pvhOQ_-2">
          <mxGeometry width="160" relative="1" as="geometry">
            <mxPoint x="200" y="440" as="sourcePoint" />
            <mxPoint x="360" y="440" as="targetPoint" />
          </mxGeometry>
        </mxCell>
        <mxCell id="STKIt9uEF0c347pvhOQ_-22" value="" style="edgeStyle=none;html=1;endArrow=none;verticalAlign=bottom;rounded=0;fontSize=24;exitX=0.5;exitY=0.5;exitDx=0;exitDy=0;exitPerimeter=0;" edge="1" parent="1" source="STKIt9uEF0c347pvhOQ_-20" target="STKIt9uEF0c347pvhOQ_-6">
          <mxGeometry width="160" relative="1" as="geometry">
            <mxPoint x="160" y="420" as="sourcePoint" />
            <mxPoint x="320" y="420" as="targetPoint" />
          </mxGeometry>
        </mxCell>
        <mxCell id="STKIt9uEF0c347pvhOQ_-23" value="" style="edgeStyle=none;html=1;endArrow=none;verticalAlign=bottom;rounded=0;fontSize=24;exitX=0.5;exitY=0.5;exitDx=0;exitDy=0;exitPerimeter=0;" edge="1" parent="1" source="STKIt9uEF0c347pvhOQ_-20" target="STKIt9uEF0c347pvhOQ_-1">
          <mxGeometry width="160" relative="1" as="geometry">
            <mxPoint x="160" y="390" as="sourcePoint" />
            <mxPoint x="320" y="390" as="targetPoint" />
          </mxGeometry>
        </mxCell>
      </root>
    </mxGraphModel>
  </diagram>
  <diagram id="DEZAZTkyaRxElTf-43m4" name="Activity&lt;SignInFrontend&gt;">
    <mxGraphModel dx="908" dy="615" grid="0" gridSize="10" guides="1" tooltips="1" connect="1" arrows="1" fold="1" page="1" pageScale="1" pageWidth="850" pageHeight="1100" math="0" shadow="0">
      <root>
        <mxCell id="0" />
        <mxCell id="1" parent="0" />
        <mxCell id="2v35tAXt7il0iFJvA5IG-1" value="" style="ellipse;html=1;shape=startState;fillColor=#000000;strokeColor=#ff0000;" parent="1" vertex="1">
          <mxGeometry x="365" y="280" width="30" height="30" as="geometry" />
        </mxCell>
        <mxCell id="2v35tAXt7il0iFJvA5IG-2" value="" style="edgeStyle=orthogonalEdgeStyle;html=1;verticalAlign=bottom;endArrow=open;endSize=8;strokeColor=#ff0000;rounded=0;" parent="1" source="2v35tAXt7il0iFJvA5IG-1" edge="1">
          <mxGeometry relative="1" as="geometry">
            <mxPoint x="380" y="370" as="targetPoint" />
          </mxGeometry>
        </mxCell>
        <mxCell id="2v35tAXt7il0iFJvA5IG-3" value="input Username and Password" style="rounded=1;whiteSpace=wrap;html=1;arcSize=40;fontColor=#000000;fillColor=#ffffc0;strokeColor=#ff0000;" parent="1" vertex="1">
          <mxGeometry x="320" y="370" width="120" height="40" as="geometry" />
        </mxCell>
        <mxCell id="2v35tAXt7il0iFJvA5IG-4" value="" style="edgeStyle=orthogonalEdgeStyle;html=1;verticalAlign=bottom;endArrow=open;endSize=8;strokeColor=#ff0000;rounded=0;" parent="1" source="2v35tAXt7il0iFJvA5IG-3" edge="1">
          <mxGeometry relative="1" as="geometry">
            <mxPoint x="380" y="470" as="targetPoint" />
          </mxGeometry>
        </mxCell>
        <mxCell id="2v35tAXt7il0iFJvA5IG-5" value="Send Username and Password to Server" style="rounded=1;whiteSpace=wrap;html=1;arcSize=40;fontColor=#000000;fillColor=#ffffc0;strokeColor=#ff0000;" parent="1" vertex="1">
          <mxGeometry x="320" y="470" width="120" height="40" as="geometry" />
        </mxCell>
        <mxCell id="2v35tAXt7il0iFJvA5IG-6" value="" style="edgeStyle=orthogonalEdgeStyle;html=1;verticalAlign=bottom;endArrow=open;endSize=8;strokeColor=#ff0000;rounded=0;" parent="1" source="2v35tAXt7il0iFJvA5IG-5" edge="1">
          <mxGeometry relative="1" as="geometry">
            <mxPoint x="380" y="570" as="targetPoint" />
          </mxGeometry>
        </mxCell>
        <mxCell id="2v35tAXt7il0iFJvA5IG-7" value="Login success ?" style="rhombus;whiteSpace=wrap;html=1;fillColor=#ffffc0;strokeColor=#ff0000;" parent="1" vertex="1">
          <mxGeometry x="315" y="570" width="130" height="40" as="geometry" />
        </mxCell>
        <mxCell id="2v35tAXt7il0iFJvA5IG-8" value="no" style="edgeStyle=orthogonalEdgeStyle;html=1;align=left;verticalAlign=bottom;endArrow=open;endSize=8;strokeColor=#ff0000;rounded=0;" parent="1" source="2v35tAXt7il0iFJvA5IG-7" edge="1">
          <mxGeometry x="-1" relative="1" as="geometry">
            <mxPoint x="520" y="590" as="targetPoint" />
          </mxGeometry>
        </mxCell>
        <mxCell id="2v35tAXt7il0iFJvA5IG-9" value="yes" style="edgeStyle=orthogonalEdgeStyle;html=1;align=left;verticalAlign=top;endArrow=open;endSize=8;strokeColor=#ff0000;rounded=0;" parent="1" source="2v35tAXt7il0iFJvA5IG-7" edge="1">
          <mxGeometry x="-1" relative="1" as="geometry">
            <mxPoint x="380" y="670" as="targetPoint" />
          </mxGeometry>
        </mxCell>
        <mxCell id="2v35tAXt7il0iFJvA5IG-10" value="Display Error" style="rounded=1;whiteSpace=wrap;html=1;arcSize=40;fontColor=#000000;fillColor=#ffffc0;strokeColor=#ff0000;" parent="1" vertex="1">
          <mxGeometry x="520" y="570" width="120" height="40" as="geometry" />
        </mxCell>
        <mxCell id="2v35tAXt7il0iFJvA5IG-11" value="" style="edgeStyle=orthogonalEdgeStyle;html=1;verticalAlign=bottom;endArrow=open;endSize=8;strokeColor=#ff0000;rounded=0;entryX=1;entryY=0;entryDx=0;entryDy=0;entryPerimeter=0;" parent="1" source="2v35tAXt7il0iFJvA5IG-10" target="2v35tAXt7il0iFJvA5IG-18" edge="1">
          <mxGeometry relative="1" as="geometry">
            <mxPoint x="580" y="860" as="targetPoint" />
          </mxGeometry>
        </mxCell>
        <mxCell id="2v35tAXt7il0iFJvA5IG-12" value="Get Token" style="rounded=1;whiteSpace=wrap;html=1;arcSize=40;fontColor=#000000;fillColor=#ffffc0;strokeColor=#ff0000;" parent="1" vertex="1">
          <mxGeometry x="320" y="670" width="120" height="40" as="geometry" />
        </mxCell>
        <mxCell id="2v35tAXt7il0iFJvA5IG-13" value="" style="edgeStyle=orthogonalEdgeStyle;html=1;verticalAlign=bottom;endArrow=open;endSize=8;strokeColor=#ff0000;rounded=0;" parent="1" source="2v35tAXt7il0iFJvA5IG-12" edge="1">
          <mxGeometry relative="1" as="geometry">
            <mxPoint x="380" y="770" as="targetPoint" />
          </mxGeometry>
        </mxCell>
        <mxCell id="2v35tAXt7il0iFJvA5IG-14" value="Save Token" style="rounded=1;whiteSpace=wrap;html=1;arcSize=40;fontColor=#000000;fillColor=#ffffc0;strokeColor=#ff0000;" parent="1" vertex="1">
          <mxGeometry x="320" y="770" width="120" height="40" as="geometry" />
        </mxCell>
        <mxCell id="2v35tAXt7il0iFJvA5IG-15" value="" style="edgeStyle=orthogonalEdgeStyle;html=1;verticalAlign=bottom;endArrow=open;endSize=8;strokeColor=#ff0000;rounded=0;" parent="1" source="2v35tAXt7il0iFJvA5IG-14" edge="1">
          <mxGeometry relative="1" as="geometry">
            <mxPoint x="380" y="870" as="targetPoint" />
          </mxGeometry>
        </mxCell>
        <mxCell id="2v35tAXt7il0iFJvA5IG-18" value="" style="shape=line;html=1;strokeWidth=6;strokeColor=#ff0000;" parent="1" vertex="1">
          <mxGeometry x="380" y="870" width="200" height="10" as="geometry" />
        </mxCell>
        <mxCell id="2v35tAXt7il0iFJvA5IG-19" value="" style="edgeStyle=orthogonalEdgeStyle;html=1;verticalAlign=bottom;endArrow=open;endSize=8;strokeColor=#ff0000;rounded=0;" parent="1" source="2v35tAXt7il0iFJvA5IG-18" edge="1">
          <mxGeometry relative="1" as="geometry">
            <mxPoint x="480" y="940" as="targetPoint" />
            <Array as="points">
              <mxPoint x="480" y="890" />
              <mxPoint x="480" y="890" />
            </Array>
          </mxGeometry>
        </mxCell>
        <mxCell id="2v35tAXt7il0iFJvA5IG-21" value="" style="ellipse;html=1;shape=endState;fillColor=#000000;strokeColor=#ff0000;" parent="1" vertex="1">
          <mxGeometry x="465" y="940" width="30" height="30" as="geometry" />
        </mxCell>
      </root>
    </mxGraphModel>
  </diagram>
  <diagram id="9k0E7IzT1ZF3eNT9z2-n" name="Activity&lt;SignInBackend&gt;">
    <mxGraphModel dx="1068" dy="1824" grid="0" gridSize="10" guides="1" tooltips="1" connect="1" arrows="1" fold="1" page="1" pageScale="1" pageWidth="850" pageHeight="1100" math="0" shadow="0">
      <root>
        <mxCell id="0" />
        <mxCell id="1" parent="0" />
        <mxCell id="URlyDSA6hL91XgDukBEw-2" value="" style="ellipse;html=1;shape=startState;fillColor=#000000;strokeColor=#ff0000;" parent="1" vertex="1">
          <mxGeometry x="330" y="-58" width="30" height="30" as="geometry" />
        </mxCell>
        <mxCell id="URlyDSA6hL91XgDukBEw-3" value="" style="edgeStyle=orthogonalEdgeStyle;html=1;verticalAlign=bottom;endArrow=open;endSize=8;strokeColor=#ff0000;rounded=0;" parent="1" source="URlyDSA6hL91XgDukBEw-2" edge="1">
          <mxGeometry relative="1" as="geometry">
            <mxPoint x="345" y="32" as="targetPoint" />
          </mxGeometry>
        </mxCell>
        <mxCell id="URlyDSA6hL91XgDukBEw-6" value="hash password" style="rounded=1;whiteSpace=wrap;html=1;arcSize=40;fontColor=#000000;fillColor=#ffffc0;strokeColor=#ff0000;" parent="1" vertex="1">
          <mxGeometry x="286" y="232" width="120" height="40" as="geometry" />
        </mxCell>
        <mxCell id="URlyDSA6hL91XgDukBEw-7" value="" style="edgeStyle=orthogonalEdgeStyle;html=1;verticalAlign=bottom;endArrow=open;endSize=8;strokeColor=#ff0000;rounded=0;" parent="1" source="URlyDSA6hL91XgDukBEw-6" edge="1">
          <mxGeometry relative="1" as="geometry">
            <mxPoint x="346" y="331" as="targetPoint" />
          </mxGeometry>
        </mxCell>
        <mxCell id="URlyDSA6hL91XgDukBEw-8" value="compare hashed password with stored password in database" style="rounded=1;whiteSpace=wrap;html=1;arcSize=40;fontColor=#000000;fillColor=#ffffc0;strokeColor=#ff0000;" parent="1" vertex="1">
          <mxGeometry x="275.5" y="331" width="141" height="62" as="geometry" />
        </mxCell>
        <mxCell id="URlyDSA6hL91XgDukBEw-9" value="" style="edgeStyle=orthogonalEdgeStyle;html=1;verticalAlign=bottom;endArrow=open;endSize=8;strokeColor=#ff0000;rounded=0;" parent="1" source="URlyDSA6hL91XgDukBEw-8" edge="1">
          <mxGeometry relative="1" as="geometry">
            <mxPoint x="346" y="431" as="targetPoint" />
          </mxGeometry>
        </mxCell>
        <mxCell id="URlyDSA6hL91XgDukBEw-10" value="Match ?" style="rhombus;whiteSpace=wrap;html=1;fillColor=#ffffc0;strokeColor=#ff0000;" parent="1" vertex="1">
          <mxGeometry x="305" y="431" width="80" height="40" as="geometry" />
        </mxCell>
        <mxCell id="URlyDSA6hL91XgDukBEw-11" value="no" style="edgeStyle=orthogonalEdgeStyle;html=1;align=left;verticalAlign=bottom;endArrow=open;endSize=8;strokeColor=#ff0000;rounded=0;" parent="1" source="URlyDSA6hL91XgDukBEw-10" edge="1">
          <mxGeometry x="-1" relative="1" as="geometry">
            <mxPoint x="485" y="451" as="targetPoint" />
          </mxGeometry>
        </mxCell>
        <mxCell id="URlyDSA6hL91XgDukBEw-12" value="yes" style="edgeStyle=orthogonalEdgeStyle;html=1;align=left;verticalAlign=top;endArrow=open;endSize=8;strokeColor=#ff0000;rounded=0;" parent="1" source="URlyDSA6hL91XgDukBEw-10" edge="1">
          <mxGeometry x="-1" relative="1" as="geometry">
            <mxPoint x="345" y="531" as="targetPoint" />
          </mxGeometry>
        </mxCell>
        <mxCell id="URlyDSA6hL91XgDukBEw-13" value="valid username" style="rhombus;whiteSpace=wrap;html=1;fillColor=#ffffc0;strokeColor=#ff0000;" parent="1" vertex="1">
          <mxGeometry x="297" y="132" width="96" height="40" as="geometry" />
        </mxCell>
        <mxCell id="URlyDSA6hL91XgDukBEw-14" value="no" style="edgeStyle=orthogonalEdgeStyle;html=1;align=left;verticalAlign=bottom;endArrow=open;endSize=8;strokeColor=#ff0000;rounded=0;" parent="1" source="URlyDSA6hL91XgDukBEw-13" edge="1">
          <mxGeometry x="-1" relative="1" as="geometry">
            <mxPoint x="545" y="431" as="targetPoint" />
          </mxGeometry>
        </mxCell>
        <mxCell id="URlyDSA6hL91XgDukBEw-15" value="yes" style="edgeStyle=orthogonalEdgeStyle;html=1;align=left;verticalAlign=top;endArrow=open;endSize=8;strokeColor=#ff0000;rounded=0;" parent="1" source="URlyDSA6hL91XgDukBEw-13" edge="1">
          <mxGeometry x="-1" relative="1" as="geometry">
            <mxPoint x="345" y="232" as="targetPoint" />
          </mxGeometry>
        </mxCell>
        <mxCell id="URlyDSA6hL91XgDukBEw-16" value="get user credentials from client" style="rounded=1;whiteSpace=wrap;html=1;arcSize=40;fontColor=#000000;fillColor=#ffffc0;strokeColor=#ff0000;" parent="1" vertex="1">
          <mxGeometry x="285" y="32" width="120" height="40" as="geometry" />
        </mxCell>
        <mxCell id="URlyDSA6hL91XgDukBEw-17" value="" style="edgeStyle=orthogonalEdgeStyle;html=1;verticalAlign=bottom;endArrow=open;endSize=8;strokeColor=#ff0000;rounded=0;" parent="1" source="URlyDSA6hL91XgDukBEw-16" edge="1">
          <mxGeometry relative="1" as="geometry">
            <mxPoint x="345" y="132" as="targetPoint" />
          </mxGeometry>
        </mxCell>
        <mxCell id="URlyDSA6hL91XgDukBEw-20" value="" style="shape=line;html=1;strokeWidth=6;strokeColor=#ff0000;" parent="1" vertex="1">
          <mxGeometry x="305" y="648" width="299" height="10" as="geometry" />
        </mxCell>
        <mxCell id="URlyDSA6hL91XgDukBEw-21" value="" style="edgeStyle=orthogonalEdgeStyle;html=1;verticalAlign=bottom;endArrow=open;endSize=8;strokeColor=#ff0000;rounded=0;" parent="1" source="URlyDSA6hL91XgDukBEw-20" edge="1">
          <mxGeometry relative="1" as="geometry">
            <mxPoint x="454" y="728" as="targetPoint" />
          </mxGeometry>
        </mxCell>
        <mxCell id="URlyDSA6hL91XgDukBEw-22" value="response 201 with access token" style="rounded=1;whiteSpace=wrap;html=1;arcSize=40;fontColor=#000000;fillColor=#ffffc0;strokeColor=#ff0000;" parent="1" vertex="1">
          <mxGeometry x="285" y="531" width="120" height="40" as="geometry" />
        </mxCell>
        <mxCell id="URlyDSA6hL91XgDukBEw-23" value="" style="edgeStyle=orthogonalEdgeStyle;html=1;verticalAlign=bottom;endArrow=open;endSize=8;strokeColor=#ff0000;rounded=0;entryX=0.132;entryY=0.32;entryDx=0;entryDy=0;entryPerimeter=0;" parent="1" source="URlyDSA6hL91XgDukBEw-22" target="URlyDSA6hL91XgDukBEw-20" edge="1">
          <mxGeometry relative="1" as="geometry">
            <mxPoint x="345" y="631" as="targetPoint" />
          </mxGeometry>
        </mxCell>
        <mxCell id="URlyDSA6hL91XgDukBEw-28" value="response 401" style="rounded=1;whiteSpace=wrap;html=1;arcSize=40;fontColor=#000000;fillColor=#ffffc0;strokeColor=#ff0000;" parent="1" vertex="1">
          <mxGeometry x="486" y="431" width="120" height="40" as="geometry" />
        </mxCell>
        <mxCell id="URlyDSA6hL91XgDukBEw-29" value="" style="edgeStyle=orthogonalEdgeStyle;html=1;verticalAlign=bottom;endArrow=open;endSize=8;strokeColor=#ff0000;rounded=0;entryX=0.809;entryY=0.495;entryDx=0;entryDy=0;entryPerimeter=0;" parent="1" source="URlyDSA6hL91XgDukBEw-28" target="URlyDSA6hL91XgDukBEw-20" edge="1">
          <mxGeometry relative="1" as="geometry">
            <mxPoint x="547" y="651" as="targetPoint" />
            <Array as="points">
              <mxPoint x="546" y="540" />
              <mxPoint x="547" y="540" />
            </Array>
          </mxGeometry>
        </mxCell>
        <mxCell id="URlyDSA6hL91XgDukBEw-30" value="" style="ellipse;html=1;shape=endState;fillColor=#000000;strokeColor=#ff0000;" parent="1" vertex="1">
          <mxGeometry x="439.5" y="728" width="30" height="30" as="geometry" />
        </mxCell>
      </root>
    </mxGraphModel>
  </diagram>
  <diagram id="19RLwfwrl8tMTYDdjStC" name="Activity&lt;RegisterFrontend&gt;">
    <mxGraphModel dx="908" dy="615" grid="0" gridSize="10" guides="1" tooltips="1" connect="1" arrows="1" fold="1" page="1" pageScale="1" pageWidth="850" pageHeight="1100" math="0" shadow="0">
      <root>
        <mxCell id="0" />
        <mxCell id="1" parent="0" />
        <mxCell id="HTLTECBKPBbuEKcGtUYV-1" value="" style="ellipse;html=1;shape=startState;fillColor=#000000;strokeColor=#ff0000;" parent="1" vertex="1">
          <mxGeometry x="402" y="88" width="30" height="30" as="geometry" />
        </mxCell>
        <mxCell id="HTLTECBKPBbuEKcGtUYV-2" value="" style="edgeStyle=orthogonalEdgeStyle;html=1;verticalAlign=bottom;endArrow=open;endSize=8;strokeColor=#ff0000;rounded=0;" parent="1" source="HTLTECBKPBbuEKcGtUYV-1" edge="1">
          <mxGeometry relative="1" as="geometry">
            <mxPoint x="417" y="178" as="targetPoint" />
          </mxGeometry>
        </mxCell>
        <mxCell id="HTLTECBKPBbuEKcGtUYV-3" value="fill register form" style="rounded=1;whiteSpace=wrap;html=1;arcSize=40;fontColor=#000000;fillColor=#ffffc0;strokeColor=#ff0000;" parent="1" vertex="1">
          <mxGeometry x="357" y="181" width="120" height="40" as="geometry" />
        </mxCell>
        <mxCell id="HTLTECBKPBbuEKcGtUYV-4" value="" style="edgeStyle=orthogonalEdgeStyle;html=1;verticalAlign=bottom;endArrow=open;endSize=8;strokeColor=#ff0000;rounded=0;" parent="1" source="HTLTECBKPBbuEKcGtUYV-3" edge="1">
          <mxGeometry relative="1" as="geometry">
            <mxPoint x="417" y="281" as="targetPoint" />
          </mxGeometry>
        </mxCell>
        <mxCell id="HTLTECBKPBbuEKcGtUYV-5" value="send register data to identity service" style="rounded=1;whiteSpace=wrap;html=1;arcSize=40;fontColor=#000000;fillColor=#ffffc0;strokeColor=#ff0000;" parent="1" vertex="1">
          <mxGeometry x="357" y="284" width="120" height="40" as="geometry" />
        </mxCell>
        <mxCell id="HTLTECBKPBbuEKcGtUYV-6" value="" style="edgeStyle=orthogonalEdgeStyle;html=1;verticalAlign=bottom;endArrow=open;endSize=8;strokeColor=#ff0000;rounded=0;" parent="1" source="HTLTECBKPBbuEKcGtUYV-5" edge="1">
          <mxGeometry relative="1" as="geometry">
            <mxPoint x="417" y="384" as="targetPoint" />
          </mxGeometry>
        </mxCell>
        <mxCell id="o8BsjNMmc4SiGMlgNHI_-1" value="Response ?" style="rhombus;whiteSpace=wrap;html=1;fillColor=#ffffc0;strokeColor=#ff0000;" parent="1" vertex="1">
          <mxGeometry x="347.5" y="387" width="139" height="40" as="geometry" />
        </mxCell>
        <mxCell id="o8BsjNMmc4SiGMlgNHI_-2" value="other code" style="edgeStyle=orthogonalEdgeStyle;html=1;align=left;verticalAlign=bottom;endArrow=open;endSize=8;strokeColor=#ff0000;rounded=0;" parent="1" source="o8BsjNMmc4SiGMlgNHI_-1" edge="1">
          <mxGeometry x="-1" relative="1" as="geometry">
            <mxPoint x="557" y="407" as="targetPoint" />
          </mxGeometry>
        </mxCell>
        <mxCell id="o8BsjNMmc4SiGMlgNHI_-3" value="201" style="edgeStyle=orthogonalEdgeStyle;html=1;align=left;verticalAlign=top;endArrow=open;endSize=8;strokeColor=#ff0000;rounded=0;" parent="1" source="o8BsjNMmc4SiGMlgNHI_-1" edge="1">
          <mxGeometry x="-1" relative="1" as="geometry">
            <mxPoint x="417" y="487" as="targetPoint" />
            <mxPoint as="offset" />
          </mxGeometry>
        </mxCell>
        <mxCell id="o8BsjNMmc4SiGMlgNHI_-4" value="sign in automatically" style="rounded=1;whiteSpace=wrap;html=1;arcSize=40;fontColor=#000000;fillColor=#ffffc0;strokeColor=#ff0000;" parent="1" vertex="1">
          <mxGeometry x="357" y="490" width="120" height="40" as="geometry" />
        </mxCell>
        <mxCell id="o8BsjNMmc4SiGMlgNHI_-5" value="" style="edgeStyle=orthogonalEdgeStyle;html=1;verticalAlign=bottom;endArrow=open;endSize=8;strokeColor=#ff0000;rounded=0;entryX=0.123;entryY=0.35;entryDx=0;entryDy=0;entryPerimeter=0;" parent="1" source="o8BsjNMmc4SiGMlgNHI_-4" target="o8BsjNMmc4SiGMlgNHI_-8" edge="1">
          <mxGeometry relative="1" as="geometry">
            <mxPoint x="417" y="590" as="targetPoint" />
          </mxGeometry>
        </mxCell>
        <mxCell id="o8BsjNMmc4SiGMlgNHI_-8" value="" style="shape=line;html=1;strokeWidth=6;strokeColor=#ff0000;" parent="1" vertex="1">
          <mxGeometry x="382" y="597" width="277" height="10" as="geometry" />
        </mxCell>
        <mxCell id="o8BsjNMmc4SiGMlgNHI_-9" value="" style="edgeStyle=orthogonalEdgeStyle;html=1;verticalAlign=bottom;endArrow=open;endSize=8;strokeColor=#ff0000;rounded=0;" parent="1" source="o8BsjNMmc4SiGMlgNHI_-8" edge="1">
          <mxGeometry relative="1" as="geometry">
            <mxPoint x="520" y="677" as="targetPoint" />
          </mxGeometry>
        </mxCell>
        <mxCell id="o8BsjNMmc4SiGMlgNHI_-10" value="" style="ellipse;html=1;shape=endState;fillColor=#000000;strokeColor=#ff0000;" parent="1" vertex="1">
          <mxGeometry x="505.5" y="675" width="30" height="30" as="geometry" />
        </mxCell>
        <mxCell id="o8BsjNMmc4SiGMlgNHI_-11" value="display error" style="rounded=1;whiteSpace=wrap;html=1;arcSize=40;fontColor=#000000;fillColor=#ffffc0;strokeColor=#ff0000;" parent="1" vertex="1">
          <mxGeometry x="558" y="387" width="120" height="40" as="geometry" />
        </mxCell>
        <mxCell id="o8BsjNMmc4SiGMlgNHI_-12" value="" style="edgeStyle=orthogonalEdgeStyle;html=1;verticalAlign=bottom;endArrow=open;endSize=8;strokeColor=#ff0000;rounded=0;entryX=0.852;entryY=0.409;entryDx=0;entryDy=0;entryPerimeter=0;" parent="1" source="o8BsjNMmc4SiGMlgNHI_-11" target="o8BsjNMmc4SiGMlgNHI_-8" edge="1">
          <mxGeometry relative="1" as="geometry">
            <mxPoint x="617" y="487" as="targetPoint" />
          </mxGeometry>
        </mxCell>
      </root>
    </mxGraphModel>
  </diagram>
  <diagram id="Uk6ikUsK9Q7CX1TzDRiR" name="Activity&lt;RegisterBackend&gt;">
    <mxGraphModel dx="908" dy="615" grid="0" gridSize="10" guides="1" tooltips="1" connect="1" arrows="1" fold="1" page="1" pageScale="1" pageWidth="850" pageHeight="1100" math="0" shadow="0">
      <root>
        <mxCell id="0" />
        <mxCell id="1" parent="0" />
        <mxCell id="qMLYia1HzVvoyH6L251O-1" value="" style="ellipse;html=1;shape=startState;fillColor=#000000;strokeColor=#ff0000;" parent="1" vertex="1">
          <mxGeometry x="409" y="219" width="30" height="30" as="geometry" />
        </mxCell>
        <mxCell id="qMLYia1HzVvoyH6L251O-2" value="" style="edgeStyle=orthogonalEdgeStyle;html=1;verticalAlign=bottom;endArrow=open;endSize=8;strokeColor=#ff0000;rounded=0;" parent="1" source="qMLYia1HzVvoyH6L251O-1" edge="1">
          <mxGeometry relative="1" as="geometry">
            <mxPoint x="424" y="309" as="targetPoint" />
          </mxGeometry>
        </mxCell>
        <mxCell id="qMLYia1HzVvoyH6L251O-3" value="get register data from client" style="rounded=1;whiteSpace=wrap;html=1;arcSize=40;fontColor=#000000;fillColor=#ffffc0;strokeColor=#ff0000;" parent="1" vertex="1">
          <mxGeometry x="364" y="314" width="120" height="40" as="geometry" />
        </mxCell>
        <mxCell id="qMLYia1HzVvoyH6L251O-4" value="" style="edgeStyle=orthogonalEdgeStyle;html=1;verticalAlign=bottom;endArrow=open;endSize=8;strokeColor=#ff0000;rounded=0;" parent="1" source="qMLYia1HzVvoyH6L251O-3" edge="1">
          <mxGeometry relative="1" as="geometry">
            <mxPoint x="424" y="414" as="targetPoint" />
          </mxGeometry>
        </mxCell>
        <mxCell id="qMLYia1HzVvoyH6L251O-10" value="username exists" style="rhombus;whiteSpace=wrap;html=1;fillColor=#ffffc0;strokeColor=#ff0000;" parent="1" vertex="1">
          <mxGeometry x="371" y="422" width="108" height="40" as="geometry" />
        </mxCell>
        <mxCell id="qMLYia1HzVvoyH6L251O-11" value="yes" style="edgeStyle=orthogonalEdgeStyle;html=1;align=left;verticalAlign=bottom;endArrow=open;endSize=8;strokeColor=#ff0000;rounded=0;entryX=0;entryY=0.5;entryDx=0;entryDy=0;" parent="1" source="qMLYia1HzVvoyH6L251O-10" target="qMLYia1HzVvoyH6L251O-27" edge="1">
          <mxGeometry x="-1" relative="1" as="geometry">
            <mxPoint x="565" y="442" as="targetPoint" />
          </mxGeometry>
        </mxCell>
        <mxCell id="qMLYia1HzVvoyH6L251O-12" value="no" style="edgeStyle=orthogonalEdgeStyle;html=1;align=left;verticalAlign=top;endArrow=open;endSize=8;strokeColor=#ff0000;rounded=0;" parent="1" source="qMLYia1HzVvoyH6L251O-10" edge="1">
          <mxGeometry x="-1" relative="1" as="geometry">
            <mxPoint x="425" y="522" as="targetPoint" />
          </mxGeometry>
        </mxCell>
        <mxCell id="qMLYia1HzVvoyH6L251O-24" value="Condition" style="rhombus;whiteSpace=wrap;html=1;fillColor=#ffffc0;strokeColor=#ff0000;" parent="1" vertex="1">
          <mxGeometry x="385" y="525" width="80" height="40" as="geometry" />
        </mxCell>
        <mxCell id="qMLYia1HzVvoyH6L251O-25" value="no" style="edgeStyle=orthogonalEdgeStyle;html=1;align=left;verticalAlign=bottom;endArrow=open;endSize=8;strokeColor=#ff0000;rounded=0;" parent="1" source="qMLYia1HzVvoyH6L251O-24" edge="1">
          <mxGeometry x="-1" relative="1" as="geometry">
            <mxPoint x="565" y="545" as="targetPoint" />
          </mxGeometry>
        </mxCell>
        <mxCell id="qMLYia1HzVvoyH6L251O-26" value="yes" style="edgeStyle=orthogonalEdgeStyle;html=1;align=left;verticalAlign=top;endArrow=open;endSize=8;strokeColor=#ff0000;rounded=0;" parent="1" source="qMLYia1HzVvoyH6L251O-24" edge="1">
          <mxGeometry x="-1" relative="1" as="geometry">
            <mxPoint x="425" y="625" as="targetPoint" />
          </mxGeometry>
        </mxCell>
        <mxCell id="qMLYia1HzVvoyH6L251O-27" value="response 400" style="rounded=1;whiteSpace=wrap;html=1;arcSize=40;fontColor=#000000;fillColor=#ffffc0;strokeColor=#ff0000;" parent="1" vertex="1">
          <mxGeometry x="690" y="422" width="120" height="40" as="geometry" />
        </mxCell>
        <mxCell id="qMLYia1HzVvoyH6L251O-28" value="" style="edgeStyle=orthogonalEdgeStyle;html=1;verticalAlign=bottom;endArrow=open;endSize=8;strokeColor=#ff0000;rounded=0;" parent="1" source="qMLYia1HzVvoyH6L251O-27" edge="1">
          <mxGeometry relative="1" as="geometry">
            <mxPoint x="750" y="722" as="targetPoint" />
          </mxGeometry>
        </mxCell>
        <mxCell id="qMLYia1HzVvoyH6L251O-29" value="response 409" style="rounded=1;whiteSpace=wrap;html=1;arcSize=40;fontColor=#000000;fillColor=#ffffc0;strokeColor=#ff0000;" parent="1" vertex="1">
          <mxGeometry x="564" y="525" width="120" height="40" as="geometry" />
        </mxCell>
        <mxCell id="qMLYia1HzVvoyH6L251O-30" value="" style="edgeStyle=orthogonalEdgeStyle;html=1;verticalAlign=bottom;endArrow=open;endSize=8;strokeColor=#ff0000;rounded=0;" parent="1" source="qMLYia1HzVvoyH6L251O-29" edge="1">
          <mxGeometry relative="1" as="geometry">
            <mxPoint x="624" y="725" as="targetPoint" />
          </mxGeometry>
        </mxCell>
        <mxCell id="qMLYia1HzVvoyH6L251O-31" value="response 201" style="rounded=1;whiteSpace=wrap;html=1;arcSize=40;fontColor=#000000;fillColor=#ffffc0;strokeColor=#ff0000;" parent="1" vertex="1">
          <mxGeometry x="365" y="628" width="120" height="40" as="geometry" />
        </mxCell>
        <mxCell id="qMLYia1HzVvoyH6L251O-32" value="" style="edgeStyle=orthogonalEdgeStyle;html=1;verticalAlign=bottom;endArrow=open;endSize=8;strokeColor=#ff0000;rounded=0;" parent="1" source="qMLYia1HzVvoyH6L251O-31" edge="1">
          <mxGeometry relative="1" as="geometry">
            <mxPoint x="425" y="728" as="targetPoint" />
          </mxGeometry>
        </mxCell>
        <mxCell id="qMLYia1HzVvoyH6L251O-33" value="" style="shape=line;html=1;strokeWidth=6;strokeColor=#ff0000;" parent="1" vertex="1">
          <mxGeometry x="418" y="728" width="345" height="10" as="geometry" />
        </mxCell>
        <mxCell id="qMLYia1HzVvoyH6L251O-34" value="" style="edgeStyle=orthogonalEdgeStyle;html=1;verticalAlign=bottom;endArrow=open;endSize=8;strokeColor=#ff0000;rounded=0;" parent="1" source="qMLYia1HzVvoyH6L251O-33" edge="1">
          <mxGeometry relative="1" as="geometry">
            <mxPoint x="591" y="810" as="targetPoint" />
          </mxGeometry>
        </mxCell>
        <mxCell id="qMLYia1HzVvoyH6L251O-35" value="" style="ellipse;html=1;shape=endState;fillColor=#000000;strokeColor=#ff0000;" parent="1" vertex="1">
          <mxGeometry x="575.5" y="812" width="30" height="30" as="geometry" />
        </mxCell>
      </root>
    </mxGraphModel>
  </diagram>
  <diagram id="bIBoGlUjRpj_qgkqH3dC" name="Activity&lt;SubmissionRunner&gt;">
    <mxGraphModel grid="1" page="1" gridSize="10" guides="1" tooltips="1" connect="1" arrows="1" fold="1" pageScale="1" pageWidth="850" pageHeight="1100" math="0" shadow="0">
      <root>
        <mxCell id="0" />
        <mxCell id="1" parent="0" />
        <mxCell id="zl2xWO6SWZfIKHcOdk8F-1" value="" style="ellipse;html=1;shape=startState;fillColor=#000000;strokeColor=#ff0000;" parent="1" vertex="1">
          <mxGeometry x="265" y="170" width="30" height="30" as="geometry" />
        </mxCell>
        <mxCell id="zl2xWO6SWZfIKHcOdk8F-2" value="" style="edgeStyle=orthogonalEdgeStyle;html=1;verticalAlign=bottom;endArrow=open;endSize=8;strokeColor=#ff0000;rounded=0;" parent="1" source="zl2xWO6SWZfIKHcOdk8F-1" target="zl2xWO6SWZfIKHcOdk8F-3" edge="1">
          <mxGeometry relative="1" as="geometry">
            <mxPoint x="280" y="260" as="targetPoint" />
          </mxGeometry>
        </mxCell>
        <mxCell id="zl2xWO6SWZfIKHcOdk8F-3" value="judge submission request received" style="rounded=1;whiteSpace=wrap;html=1;arcSize=40;fontColor=#000000;fillColor=#ffffc0;strokeColor=#ff0000;" parent="1" vertex="1">
          <mxGeometry x="220" y="260" width="120" height="40" as="geometry" />
        </mxCell>
        <mxCell id="zl2xWO6SWZfIKHcOdk8F-4" value="" style="edgeStyle=orthogonalEdgeStyle;html=1;verticalAlign=bottom;endArrow=open;endSize=8;strokeColor=#ff0000;rounded=0;" parent="1" source="zl2xWO6SWZfIKHcOdk8F-3" target="zl2xWO6SWZfIKHcOdk8F-20" edge="1">
          <mxGeometry relative="1" as="geometry">
            <mxPoint x="280" y="340" as="targetPoint" />
          </mxGeometry>
        </mxCell>
        <mxCell id="zl2xWO6SWZfIKHcOdk8F-5" value="generate an id from 0 to 999" style="rounded=1;whiteSpace=wrap;html=1;arcSize=40;fontColor=#000000;fillColor=#ffffc0;strokeColor=#ff0000;" parent="1" vertex="1">
          <mxGeometry x="220" y="490" width="120" height="50" as="geometry" />
        </mxCell>
        <mxCell id="zl2xWO6SWZfIKHcOdk8F-6" value="" style="edgeStyle=orthogonalEdgeStyle;html=1;verticalAlign=bottom;endArrow=open;endSize=8;strokeColor=#ff0000;rounded=0;entryX=0.497;entryY=-0.047;entryDx=0;entryDy=0;entryPerimeter=0;" parent="1" source="zl2xWO6SWZfIKHcOdk8F-5" target="zl2xWO6SWZfIKHcOdk8F-12" edge="1">
          <mxGeometry relative="1" as="geometry">
            <mxPoint x="280" y="590" as="targetPoint" />
          </mxGeometry>
        </mxCell>
        <mxCell id="zl2xWO6SWZfIKHcOdk8F-12" value="box already exists ?" style="rhombus;whiteSpace=wrap;html=1;fontColor=#000000;fillColor=#ffffc0;strokeColor=#ff0000;" parent="1" vertex="1">
          <mxGeometry x="215" y="590" width="130" height="60" as="geometry" />
        </mxCell>
        <mxCell id="zl2xWO6SWZfIKHcOdk8F-13" value="yes" style="edgeStyle=orthogonalEdgeStyle;html=1;align=left;verticalAlign=bottom;endArrow=open;endSize=8;strokeColor=#ff0000;rounded=0;" parent="1" source="zl2xWO6SWZfIKHcOdk8F-12" target="zl2xWO6SWZfIKHcOdk8F-5" edge="1">
          <mxGeometry x="-1" relative="1" as="geometry">
            <mxPoint x="420" y="510" as="targetPoint" />
            <Array as="points">
              <mxPoint x="420" y="620" />
              <mxPoint x="420" y="515" />
            </Array>
          </mxGeometry>
        </mxCell>
        <mxCell id="zl2xWO6SWZfIKHcOdk8F-14" value="no" style="edgeStyle=orthogonalEdgeStyle;html=1;align=left;verticalAlign=top;endArrow=open;endSize=8;strokeColor=#ff0000;rounded=0;entryX=0.499;entryY=-0.055;entryDx=0;entryDy=0;entryPerimeter=0;" parent="1" source="zl2xWO6SWZfIKHcOdk8F-12" target="zl2xWO6SWZfIKHcOdk8F-15" edge="1">
          <mxGeometry x="-1" relative="1" as="geometry">
            <mxPoint x="280" y="700" as="targetPoint" />
            <mxPoint as="offset" />
          </mxGeometry>
        </mxCell>
        <mxCell id="zl2xWO6SWZfIKHcOdk8F-15" value="create isolate box" style="rounded=1;whiteSpace=wrap;html=1;arcSize=40;fontColor=#000000;fillColor=#ffffc0;strokeColor=#ff0000;" parent="1" vertex="1">
          <mxGeometry x="220" y="680" width="120" height="40" as="geometry" />
        </mxCell>
        <mxCell id="zl2xWO6SWZfIKHcOdk8F-16" value="" style="edgeStyle=orthogonalEdgeStyle;html=1;verticalAlign=bottom;endArrow=open;endSize=8;strokeColor=#ff0000;rounded=0;entryX=0.505;entryY=-0.055;entryDx=0;entryDy=0;entryPerimeter=0;" parent="1" source="zl2xWO6SWZfIKHcOdk8F-15" target="zl2xWO6SWZfIKHcOdk8F-17" edge="1">
          <mxGeometry relative="1" as="geometry">
            <mxPoint x="280" y="800" as="targetPoint" />
          </mxGeometry>
        </mxCell>
        <mxCell id="zl2xWO6SWZfIKHcOdk8F-17" value="create submission source code file inside box dir" style="rounded=1;whiteSpace=wrap;html=1;arcSize=40;fontColor=#000000;fillColor=#ffffc0;strokeColor=#ff0000;" parent="1" vertex="1">
          <mxGeometry x="220" y="740" width="120" height="40" as="geometry" />
        </mxCell>
        <mxCell id="zl2xWO6SWZfIKHcOdk8F-18" value="" style="edgeStyle=orthogonalEdgeStyle;html=1;verticalAlign=bottom;endArrow=open;endSize=8;strokeColor=#ff0000;rounded=0;" parent="1" source="zl2xWO6SWZfIKHcOdk8F-17" target="zl2xWO6SWZfIKHcOdk8F-32" edge="1">
          <mxGeometry relative="1" as="geometry">
            <mxPoint x="280" y="800" as="targetPoint" />
          </mxGeometry>
        </mxCell>
        <mxCell id="zl2xWO6SWZfIKHcOdk8F-20" value="Query database for needed data" style="rounded=1;whiteSpace=wrap;html=1;arcSize=40;fontColor=#000000;fillColor=#ffffc0;strokeColor=#ff0000;" parent="1" vertex="1">
          <mxGeometry x="220" y="340" width="120" height="40" as="geometry" />
        </mxCell>
        <mxCell id="zl2xWO6SWZfIKHcOdk8F-21" value="" style="edgeStyle=orthogonalEdgeStyle;html=1;verticalAlign=bottom;endArrow=open;endSize=8;strokeColor=#ff0000;rounded=0;" parent="1" source="zl2xWO6SWZfIKHcOdk8F-20" edge="1">
          <mxGeometry relative="1" as="geometry">
            <mxPoint x="280" y="420" as="targetPoint" />
          </mxGeometry>
        </mxCell>
        <mxCell id="zl2xWO6SWZfIKHcOdk8F-24" value="" style="rhombus;whiteSpace=wrap;html=1;fontColor=#000000;fillColor=#ffffc0;strokeColor=#ff0000;" parent="1" vertex="1">
          <mxGeometry x="240" y="420" width="80" height="40" as="geometry" />
        </mxCell>
        <mxCell id="zl2xWO6SWZfIKHcOdk8F-25" value="failed" style="edgeStyle=orthogonalEdgeStyle;html=1;align=left;verticalAlign=bottom;endArrow=open;endSize=8;strokeColor=#ff0000;rounded=0;" parent="1" source="zl2xWO6SWZfIKHcOdk8F-24" target="zl2xWO6SWZfIKHcOdk8F-27" edge="1">
          <mxGeometry x="-1" relative="1" as="geometry">
            <mxPoint x="420" y="440" as="targetPoint" />
          </mxGeometry>
        </mxCell>
        <mxCell id="zl2xWO6SWZfIKHcOdk8F-26" value="success" style="edgeStyle=orthogonalEdgeStyle;html=1;align=left;verticalAlign=top;endArrow=open;endSize=8;strokeColor=#ff0000;rounded=0;" parent="1" source="zl2xWO6SWZfIKHcOdk8F-24" target="zl2xWO6SWZfIKHcOdk8F-5" edge="1">
          <mxGeometry x="-1" relative="1" as="geometry">
            <mxPoint x="280" y="460" as="targetPoint" />
          </mxGeometry>
        </mxCell>
        <mxCell id="zl2xWO6SWZfIKHcOdk8F-27" value="throw Error and send error response" style="rounded=1;whiteSpace=wrap;html=1;arcSize=40;fontColor=#000000;fillColor=#ffffc0;strokeColor=#ff0000;" parent="1" vertex="1">
          <mxGeometry x="560" y="420" width="120" height="40" as="geometry" />
        </mxCell>
        <mxCell id="zl2xWO6SWZfIKHcOdk8F-28" value="" style="edgeStyle=orthogonalEdgeStyle;html=1;verticalAlign=bottom;endArrow=open;endSize=8;strokeColor=#ff0000;rounded=0;entryX=1;entryY=0;entryDx=0;entryDy=0;entryPerimeter=0;" parent="1" source="zl2xWO6SWZfIKHcOdk8F-27" target="zl2xWO6SWZfIKHcOdk8F-53" edge="1">
          <mxGeometry relative="1" as="geometry">
            <mxPoint x="620" y="1250.952380952381" as="targetPoint" />
          </mxGeometry>
        </mxCell>
        <mxCell id="zl2xWO6SWZfIKHcOdk8F-32" value="compile" style="rhombus;whiteSpace=wrap;html=1;fontColor=#000000;fillColor=#ffffc0;strokeColor=#ff0000;" parent="1" vertex="1">
          <mxGeometry x="240" y="830" width="80" height="40" as="geometry" />
        </mxCell>
        <mxCell id="zl2xWO6SWZfIKHcOdk8F-33" value="failed" style="edgeStyle=orthogonalEdgeStyle;html=1;align=left;verticalAlign=bottom;endArrow=open;endSize=8;strokeColor=#ff0000;rounded=0;" parent="1" source="zl2xWO6SWZfIKHcOdk8F-32" target="zl2xWO6SWZfIKHcOdk8F-35" edge="1">
          <mxGeometry x="-1" relative="1" as="geometry">
            <mxPoint x="420" y="850" as="targetPoint" />
            <mxPoint as="offset" />
          </mxGeometry>
        </mxCell>
        <mxCell id="zl2xWO6SWZfIKHcOdk8F-34" value="succes" style="edgeStyle=orthogonalEdgeStyle;html=1;align=left;verticalAlign=top;endArrow=open;endSize=8;strokeColor=#ff0000;rounded=0;" parent="1" source="zl2xWO6SWZfIKHcOdk8F-32" target="zl2xWO6SWZfIKHcOdk8F-42" edge="1">
          <mxGeometry x="-1" relative="1" as="geometry">
            <mxPoint x="280" y="910" as="targetPoint" />
            <mxPoint as="offset" />
          </mxGeometry>
        </mxCell>
        <mxCell id="zl2xWO6SWZfIKHcOdk8F-35" value="Update submission status as failed" style="rounded=1;whiteSpace=wrap;html=1;arcSize=40;fontColor=#000000;fillColor=#ffffc0;strokeColor=#ff0000;" parent="1" vertex="1">
          <mxGeometry x="450" y="830" width="120" height="40" as="geometry" />
        </mxCell>
        <mxCell id="zl2xWO6SWZfIKHcOdk8F-36" value="" style="edgeStyle=orthogonalEdgeStyle;html=1;verticalAlign=bottom;endArrow=open;endSize=8;strokeColor=#ff0000;rounded=0;entryX=0.454;entryY=0.162;entryDx=0;entryDy=0;entryPerimeter=0;" parent="1" source="zl2xWO6SWZfIKHcOdk8F-35" target="zl2xWO6SWZfIKHcOdk8F-53" edge="1">
          <mxGeometry relative="1" as="geometry">
            <mxPoint x="510" y="930" as="targetPoint" />
          </mxGeometry>
        </mxCell>
        <mxCell id="zl2xWO6SWZfIKHcOdk8F-42" value="any testcase left unexecuted" style="rhombus;whiteSpace=wrap;html=1;fontColor=#000000;fillColor=#ffffc0;strokeColor=#ff0000;" parent="1" vertex="1">
          <mxGeometry x="215" y="910" width="130" height="50" as="geometry" />
        </mxCell>
        <mxCell id="zl2xWO6SWZfIKHcOdk8F-43" value="no" style="edgeStyle=orthogonalEdgeStyle;html=1;align=left;verticalAlign=bottom;endArrow=open;endSize=8;strokeColor=#ff0000;rounded=0;" parent="1" source="zl2xWO6SWZfIKHcOdk8F-42" target="zl2xWO6SWZfIKHcOdk8F-45" edge="1">
          <mxGeometry x="-1" relative="1" as="geometry">
            <mxPoint x="420" y="990" as="targetPoint" />
            <Array as="points">
              <mxPoint x="420" y="935" />
            </Array>
          </mxGeometry>
        </mxCell>
        <mxCell id="zl2xWO6SWZfIKHcOdk8F-44" value="yes" style="edgeStyle=orthogonalEdgeStyle;html=1;align=left;verticalAlign=top;endArrow=open;endSize=8;strokeColor=#ff0000;rounded=0;" parent="1" source="zl2xWO6SWZfIKHcOdk8F-42" edge="1">
          <mxGeometry x="-1" relative="1" as="geometry">
            <mxPoint x="280" y="1010" as="targetPoint" />
          </mxGeometry>
        </mxCell>
        <mxCell id="zl2xWO6SWZfIKHcOdk8F-45" value="Update status as done" style="rounded=1;whiteSpace=wrap;html=1;arcSize=40;fontColor=#000000;fillColor=#ffffc0;strokeColor=#ff0000;" parent="1" vertex="1">
          <mxGeometry x="360" y="990" width="120" height="40" as="geometry" />
        </mxCell>
        <mxCell id="zl2xWO6SWZfIKHcOdk8F-46" value="" style="edgeStyle=orthogonalEdgeStyle;html=1;verticalAlign=bottom;endArrow=open;endSize=8;strokeColor=#ff0000;rounded=0;" parent="1" source="zl2xWO6SWZfIKHcOdk8F-45" edge="1">
          <mxGeometry relative="1" as="geometry">
            <mxPoint x="420" y="1260" as="targetPoint" />
          </mxGeometry>
        </mxCell>
        <mxCell id="zl2xWO6SWZfIKHcOdk8F-47" value="Run testcase" style="rounded=1;whiteSpace=wrap;html=1;arcSize=40;fontColor=#000000;fillColor=#ffffc0;strokeColor=#ff0000;" parent="1" vertex="1">
          <mxGeometry x="220" y="1010" width="120" height="40" as="geometry" />
        </mxCell>
        <mxCell id="zl2xWO6SWZfIKHcOdk8F-48" value="" style="edgeStyle=orthogonalEdgeStyle;html=1;verticalAlign=bottom;endArrow=open;endSize=8;strokeColor=#ff0000;rounded=0;" parent="1" source="zl2xWO6SWZfIKHcOdk8F-47" edge="1">
          <mxGeometry relative="1" as="geometry">
            <mxPoint x="280" y="1110" as="targetPoint" />
          </mxGeometry>
        </mxCell>
        <mxCell id="zl2xWO6SWZfIKHcOdk8F-49" value="Collect meta result" style="rounded=1;whiteSpace=wrap;html=1;arcSize=40;fontColor=#000000;fillColor=#ffffc0;strokeColor=#ff0000;" parent="1" vertex="1">
          <mxGeometry x="220" y="1110" width="120" height="40" as="geometry" />
        </mxCell>
        <mxCell id="zl2xWO6SWZfIKHcOdk8F-50" value="" style="edgeStyle=orthogonalEdgeStyle;html=1;verticalAlign=bottom;endArrow=open;endSize=8;strokeColor=#ff0000;rounded=0;" parent="1" source="zl2xWO6SWZfIKHcOdk8F-49" edge="1">
          <mxGeometry relative="1" as="geometry">
            <mxPoint x="280" y="1210" as="targetPoint" />
          </mxGeometry>
        </mxCell>
        <mxCell id="zl2xWO6SWZfIKHcOdk8F-51" value="Update test result in database" style="rounded=1;whiteSpace=wrap;html=1;arcSize=40;fontColor=#000000;fillColor=#ffffc0;strokeColor=#ff0000;" parent="1" vertex="1">
          <mxGeometry x="220" y="1210" width="120" height="40" as="geometry" />
        </mxCell>
        <mxCell id="zl2xWO6SWZfIKHcOdk8F-52" value="" style="edgeStyle=orthogonalEdgeStyle;html=1;verticalAlign=bottom;endArrow=open;endSize=8;strokeColor=#ff0000;rounded=0;entryX=0;entryY=0.5;entryDx=0;entryDy=0;" parent="1" source="zl2xWO6SWZfIKHcOdk8F-51" target="zl2xWO6SWZfIKHcOdk8F-42" edge="1">
          <mxGeometry relative="1" as="geometry">
            <mxPoint x="100" y="920" as="targetPoint" />
            <Array as="points">
              <mxPoint x="130" y="1230" />
              <mxPoint x="130" y="935" />
            </Array>
          </mxGeometry>
        </mxCell>
        <mxCell id="zl2xWO6SWZfIKHcOdk8F-53" value="" style="shape=line;html=1;strokeWidth=6;strokeColor=#ff0000;" parent="1" vertex="1">
          <mxGeometry x="420" y="1260" width="200" height="10" as="geometry" />
        </mxCell>
        <mxCell id="zl2xWO6SWZfIKHcOdk8F-54" value="" style="edgeStyle=orthogonalEdgeStyle;html=1;verticalAlign=bottom;endArrow=open;endSize=8;strokeColor=#ff0000;rounded=0;" parent="1" source="zl2xWO6SWZfIKHcOdk8F-53" edge="1">
          <mxGeometry relative="1" as="geometry">
            <mxPoint x="520" y="1330" as="targetPoint" />
          </mxGeometry>
        </mxCell>
        <mxCell id="zl2xWO6SWZfIKHcOdk8F-55" value="" style="ellipse;html=1;shape=endState;fillColor=#000000;strokeColor=#ff0000;" parent="1" vertex="1">
          <mxGeometry x="505" y="1330" width="30" height="30" as="geometry" />
        </mxCell>
      </root>
    </mxGraphModel>
  </diagram>
  <diagram id="QSAmfxvUzHG41_Hr5oxx" name="Activity&lt;ViewProfile&gt;">
    <mxGraphModel dx="698" dy="473" grid="1" gridSize="10" guides="1" tooltips="1" connect="1" arrows="1" fold="1" page="1" pageScale="1" pageWidth="850" pageHeight="1100" math="0" shadow="0">
      <root>
        <mxCell id="0" />
        <mxCell id="1" parent="0" />
        <mxCell id="pwRLXQCvg9fveqEIqZjj-1" value="" style="ellipse;html=1;shape=startState;fillColor=#000000;strokeColor=#ff0000;fontSize=24;" vertex="1" parent="1">
          <mxGeometry x="265" y="140" width="30" height="30" as="geometry" />
        </mxCell>
        <mxCell id="pwRLXQCvg9fveqEIqZjj-2" value="" style="edgeStyle=orthogonalEdgeStyle;html=1;verticalAlign=bottom;endArrow=open;endSize=8;strokeColor=#ff0000;rounded=0;fontSize=24;" edge="1" source="pwRLXQCvg9fveqEIqZjj-1" parent="1">
          <mxGeometry relative="1" as="geometry">
            <mxPoint x="280" y="230" as="targetPoint" />
          </mxGeometry>
        </mxCell>
        <mxCell id="pwRLXQCvg9fveqEIqZjj-5" value="Click on profile" style="rounded=1;whiteSpace=wrap;html=1;arcSize=40;fontColor=#000000;fillColor=#ffffc0;strokeColor=#ff0000;fontSize=18;" vertex="1" parent="1">
          <mxGeometry x="220" y="230" width="120" height="50" as="geometry" />
        </mxCell>
        <mxCell id="pwRLXQCvg9fveqEIqZjj-6" value="" style="edgeStyle=orthogonalEdgeStyle;html=1;verticalAlign=bottom;endArrow=open;endSize=8;strokeColor=#ff0000;rounded=0;fontSize=18;" edge="1" source="pwRLXQCvg9fveqEIqZjj-5" parent="1">
          <mxGeometry relative="1" as="geometry">
            <mxPoint x="280" y="340" as="targetPoint" />
          </mxGeometry>
        </mxCell>
        <mxCell id="gB84yjGl_BaC9_u1yjy6-4" value="Success" style="rhombus;whiteSpace=wrap;html=1;fontColor=#000000;fillColor=#ffffc0;strokeColor=#ff0000;fontSize=18;" vertex="1" parent="1">
          <mxGeometry x="212.5" y="340" width="135" height="40" as="geometry" />
        </mxCell>
        <mxCell id="gB84yjGl_BaC9_u1yjy6-5" value="no" style="edgeStyle=orthogonalEdgeStyle;html=1;align=left;verticalAlign=bottom;endArrow=open;endSize=8;strokeColor=#ff0000;rounded=0;fontSize=18;" edge="1" source="gB84yjGl_BaC9_u1yjy6-4" parent="1">
          <mxGeometry x="-1" relative="1" as="geometry">
            <mxPoint x="420" y="360" as="targetPoint" />
          </mxGeometry>
        </mxCell>
        <mxCell id="gB84yjGl_BaC9_u1yjy6-6" value="yes" style="edgeStyle=orthogonalEdgeStyle;html=1;align=left;verticalAlign=top;endArrow=open;endSize=8;strokeColor=#ff0000;rounded=0;fontSize=18;" edge="1" source="gB84yjGl_BaC9_u1yjy6-4" parent="1">
          <mxGeometry x="-1" relative="1" as="geometry">
            <mxPoint x="280" y="440" as="targetPoint" />
          </mxGeometry>
        </mxCell>
        <mxCell id="gB84yjGl_BaC9_u1yjy6-7" value="Display profile page" style="rounded=1;whiteSpace=wrap;html=1;arcSize=40;fontColor=#000000;fillColor=#ffffc0;strokeColor=#ff0000;fontSize=18;" vertex="1" parent="1">
          <mxGeometry x="220" y="440" width="120" height="40" as="geometry" />
        </mxCell>
        <mxCell id="gB84yjGl_BaC9_u1yjy6-8" value="" style="edgeStyle=orthogonalEdgeStyle;html=1;verticalAlign=bottom;endArrow=open;endSize=8;strokeColor=#ff0000;rounded=0;fontSize=18;" edge="1" source="gB84yjGl_BaC9_u1yjy6-7" parent="1">
          <mxGeometry relative="1" as="geometry">
            <mxPoint x="280" y="540" as="targetPoint" />
          </mxGeometry>
        </mxCell>
        <mxCell id="gB84yjGl_BaC9_u1yjy6-9" value="Popup error and turn back to main page" style="rounded=1;whiteSpace=wrap;html=1;arcSize=40;fontColor=#000000;fillColor=#ffffc0;strokeColor=#ff0000;fontSize=18;" vertex="1" parent="1">
          <mxGeometry x="420" y="330" width="240" height="50" as="geometry" />
        </mxCell>
        <mxCell id="gB84yjGl_BaC9_u1yjy6-10" value="" style="edgeStyle=orthogonalEdgeStyle;html=1;verticalAlign=bottom;endArrow=open;endSize=8;strokeColor=#ff0000;rounded=0;fontSize=18;" edge="1" source="gB84yjGl_BaC9_u1yjy6-9" parent="1">
          <mxGeometry relative="1" as="geometry">
            <mxPoint x="540" y="540" as="targetPoint" />
            <Array as="points">
              <mxPoint x="540" y="440" />
            </Array>
          </mxGeometry>
        </mxCell>
        <mxCell id="gB84yjGl_BaC9_u1yjy6-11" value="" style="shape=line;html=1;strokeWidth=6;strokeColor=#ff0000;fontSize=18;" vertex="1" parent="1">
          <mxGeometry x="280" y="540" width="260" height="10" as="geometry" />
        </mxCell>
        <mxCell id="gB84yjGl_BaC9_u1yjy6-12" value="" style="edgeStyle=orthogonalEdgeStyle;html=1;verticalAlign=bottom;endArrow=open;endSize=8;strokeColor=#ff0000;rounded=0;fontSize=18;" edge="1" source="gB84yjGl_BaC9_u1yjy6-11" parent="1">
          <mxGeometry relative="1" as="geometry">
            <mxPoint x="410" y="620" as="targetPoint" />
          </mxGeometry>
        </mxCell>
        <mxCell id="gB84yjGl_BaC9_u1yjy6-13" value="" style="ellipse;html=1;shape=endState;fillColor=#000000;strokeColor=#ff0000;fontSize=18;" vertex="1" parent="1">
          <mxGeometry x="395" y="620" width="30" height="30" as="geometry" />
        </mxCell>
      </root>
    </mxGraphModel>
  </diagram>
  <diagram id="80iv5YiRlMclXx5rzzGj" name="Activity&lt;Edit Profile&gt;">
    <mxGraphModel dx="724" dy="492" grid="1" gridSize="10" guides="1" tooltips="1" connect="1" arrows="1" fold="1" page="1" pageScale="1" pageWidth="850" pageHeight="1100" math="0" shadow="0">
      <root>
        <mxCell id="0" />
        <mxCell id="1" parent="0" />
        <mxCell id="nEDRjL2B0RVFuwnG9dWk-11" value="" style="ellipse;html=1;shape=startState;fillColor=#000000;strokeColor=#ff0000;fontSize=18;" vertex="1" parent="1">
          <mxGeometry x="425" y="330" width="30" height="30" as="geometry" />
        </mxCell>
        <mxCell id="nEDRjL2B0RVFuwnG9dWk-12" value="" style="edgeStyle=orthogonalEdgeStyle;html=1;verticalAlign=bottom;endArrow=open;endSize=8;strokeColor=#ff0000;rounded=0;fontSize=18;" edge="1" source="nEDRjL2B0RVFuwnG9dWk-11" parent="1">
          <mxGeometry relative="1" as="geometry">
            <mxPoint x="440" y="400" as="targetPoint" />
          </mxGeometry>
        </mxCell>
        <mxCell id="nEDRjL2B0RVFuwnG9dWk-13" value="&lt;font style=&quot;font-size: 14px;&quot;&gt;Insert updated profile data and click save&lt;/font&gt;" style="rounded=1;whiteSpace=wrap;html=1;arcSize=40;fontColor=#000000;fillColor=#ffffc0;strokeColor=#ff0000;fontSize=18;" vertex="1" parent="1">
          <mxGeometry x="320" y="400" width="240" height="60" as="geometry" />
        </mxCell>
        <mxCell id="nEDRjL2B0RVFuwnG9dWk-14" value="" style="edgeStyle=orthogonalEdgeStyle;html=1;verticalAlign=bottom;endArrow=open;endSize=8;strokeColor=#ff0000;rounded=0;fontSize=18;" edge="1" source="nEDRjL2B0RVFuwnG9dWk-13" parent="1">
          <mxGeometry relative="1" as="geometry">
            <mxPoint x="440" y="500" as="targetPoint" />
          </mxGeometry>
        </mxCell>
        <mxCell id="nEDRjL2B0RVFuwnG9dWk-15" value="&lt;font style=&quot;font-size: 14px;&quot;&gt;Success&lt;/font&gt;" style="rhombus;whiteSpace=wrap;html=1;fontColor=#000000;fillColor=#ffffc0;strokeColor=#ff0000;fontSize=18;" vertex="1" parent="1">
          <mxGeometry x="400" y="500" width="80" height="40" as="geometry" />
        </mxCell>
        <mxCell id="nEDRjL2B0RVFuwnG9dWk-16" value="no" style="edgeStyle=orthogonalEdgeStyle;html=1;align=left;verticalAlign=bottom;endArrow=open;endSize=8;strokeColor=#ff0000;rounded=0;fontSize=18;" edge="1" source="nEDRjL2B0RVFuwnG9dWk-15" parent="1">
          <mxGeometry x="-1" relative="1" as="geometry">
            <mxPoint x="580" y="520" as="targetPoint" />
          </mxGeometry>
        </mxCell>
        <mxCell id="nEDRjL2B0RVFuwnG9dWk-17" value="yes" style="edgeStyle=orthogonalEdgeStyle;html=1;align=left;verticalAlign=top;endArrow=open;endSize=8;strokeColor=#ff0000;rounded=0;fontSize=18;" edge="1" source="nEDRjL2B0RVFuwnG9dWk-15" parent="1">
          <mxGeometry x="-1" relative="1" as="geometry">
            <mxPoint x="440" y="600" as="targetPoint" />
          </mxGeometry>
        </mxCell>
        <mxCell id="nEDRjL2B0RVFuwnG9dWk-18" value="Display updated profile" style="rounded=1;whiteSpace=wrap;html=1;arcSize=40;fontColor=#000000;fillColor=#ffffc0;strokeColor=#ff0000;fontSize=14;" vertex="1" parent="1">
          <mxGeometry x="380" y="600" width="120" height="40" as="geometry" />
        </mxCell>
        <mxCell id="nEDRjL2B0RVFuwnG9dWk-19" value="" style="edgeStyle=orthogonalEdgeStyle;html=1;verticalAlign=bottom;endArrow=open;endSize=8;strokeColor=#ff0000;rounded=0;fontSize=14;" edge="1" source="nEDRjL2B0RVFuwnG9dWk-18" parent="1">
          <mxGeometry relative="1" as="geometry">
            <mxPoint x="440" y="700" as="targetPoint" />
          </mxGeometry>
        </mxCell>
        <mxCell id="nEDRjL2B0RVFuwnG9dWk-20" value="Display error and display unupdated profile" style="rounded=1;whiteSpace=wrap;html=1;arcSize=40;fontColor=#000000;fillColor=#ffffc0;strokeColor=#ff0000;fontSize=14;" vertex="1" parent="1">
          <mxGeometry x="580" y="500" width="160" height="40" as="geometry" />
        </mxCell>
        <mxCell id="nEDRjL2B0RVFuwnG9dWk-21" value="" style="edgeStyle=orthogonalEdgeStyle;html=1;verticalAlign=bottom;endArrow=open;endSize=8;strokeColor=#ff0000;rounded=0;fontSize=14;" edge="1" source="nEDRjL2B0RVFuwnG9dWk-20" parent="1">
          <mxGeometry relative="1" as="geometry">
            <mxPoint x="660" y="700" as="targetPoint" />
          </mxGeometry>
        </mxCell>
        <mxCell id="nEDRjL2B0RVFuwnG9dWk-22" value="" style="shape=line;html=1;strokeWidth=6;strokeColor=#ff0000;fontSize=14;" vertex="1" parent="1">
          <mxGeometry x="440" y="700" width="220" height="10" as="geometry" />
        </mxCell>
        <mxCell id="nEDRjL2B0RVFuwnG9dWk-23" value="" style="edgeStyle=orthogonalEdgeStyle;html=1;verticalAlign=bottom;endArrow=open;endSize=8;strokeColor=#ff0000;rounded=0;fontSize=14;entryX=0.5;entryY=0;entryDx=0;entryDy=0;" edge="1" source="nEDRjL2B0RVFuwnG9dWk-22" parent="1" target="nEDRjL2B0RVFuwnG9dWk-24">
          <mxGeometry relative="1" as="geometry">
            <mxPoint x="540" y="780" as="targetPoint" />
          </mxGeometry>
        </mxCell>
        <mxCell id="nEDRjL2B0RVFuwnG9dWk-24" value="" style="ellipse;html=1;shape=endState;fillColor=#000000;strokeColor=#ff0000;fontSize=14;" vertex="1" parent="1">
          <mxGeometry x="535" y="790" width="30" height="30" as="geometry" />
        </mxCell>
      </root>
    </mxGraphModel>
  </diagram>
  <diagram id="UUPbix7_K5bFsAuX8bM1" name="Activity&lt;ChangePassword&gt;">
    <mxGraphModel dx="905" dy="611" grid="1" gridSize="10" guides="1" tooltips="1" connect="1" arrows="1" fold="1" page="1" pageScale="1" pageWidth="850" pageHeight="1100" math="0" shadow="0">
      <root>
        <mxCell id="0" />
        <mxCell id="1" parent="0" />
        <mxCell id="BEmC0dXyyWvDLiSu66DT-7" value="" style="ellipse;html=1;shape=startState;fillColor=#000000;strokeColor=#ff0000;fontSize=14;" parent="1" vertex="1">
          <mxGeometry x="425" y="220" width="30" height="30" as="geometry" />
        </mxCell>
        <mxCell id="BEmC0dXyyWvDLiSu66DT-8" value="" style="edgeStyle=orthogonalEdgeStyle;html=1;verticalAlign=bottom;endArrow=open;endSize=8;strokeColor=#ff0000;rounded=0;fontSize=14;" parent="1" source="BEmC0dXyyWvDLiSu66DT-7" edge="1">
          <mxGeometry relative="1" as="geometry">
            <mxPoint x="440" y="330" as="targetPoint" />
            <Array as="points">
              <mxPoint x="440" y="230" />
              <mxPoint x="440" y="230" />
            </Array>
          </mxGeometry>
        </mxCell>
        <mxCell id="BEmC0dXyyWvDLiSu66DT-9" value="Insert old, new, and retype new password then click Change password" style="rounded=1;whiteSpace=wrap;html=1;arcSize=40;fontColor=#000000;fillColor=#ffffc0;strokeColor=#ff0000;fontSize=14;" parent="1" vertex="1">
          <mxGeometry x="360" y="330" width="160" height="100" as="geometry" />
        </mxCell>
        <mxCell id="BEmC0dXyyWvDLiSu66DT-10" value="" style="edgeStyle=orthogonalEdgeStyle;html=1;verticalAlign=bottom;endArrow=open;endSize=8;strokeColor=#ff0000;rounded=0;fontSize=14;" parent="1" source="BEmC0dXyyWvDLiSu66DT-9" edge="1">
          <mxGeometry relative="1" as="geometry">
            <mxPoint x="440" y="480" as="targetPoint" />
          </mxGeometry>
        </mxCell>
        <mxCell id="BEmC0dXyyWvDLiSu66DT-11" value="Retype wrong" style="rhombus;whiteSpace=wrap;html=1;fontColor=#000000;fillColor=#ffffc0;strokeColor=#ff0000;fontSize=14;" parent="1" vertex="1">
          <mxGeometry x="340" y="480" width="200" height="40" as="geometry" />
        </mxCell>
        <mxCell id="BEmC0dXyyWvDLiSu66DT-12" value="yes" style="edgeStyle=orthogonalEdgeStyle;html=1;align=left;verticalAlign=bottom;endArrow=open;endSize=8;strokeColor=#ff0000;rounded=0;fontSize=14;entryX=0;entryY=0.5;entryDx=0;entryDy=0;" parent="1" source="BEmC0dXyyWvDLiSu66DT-11" target="BEmC0dXyyWvDLiSu66DT-14" edge="1">
          <mxGeometry x="-1" relative="1" as="geometry">
            <mxPoint x="580" y="500" as="targetPoint" />
          </mxGeometry>
        </mxCell>
        <mxCell id="BEmC0dXyyWvDLiSu66DT-13" value="no" style="edgeStyle=orthogonalEdgeStyle;html=1;align=left;verticalAlign=top;endArrow=open;endSize=8;strokeColor=#ff0000;rounded=0;fontSize=14;" parent="1" source="BEmC0dXyyWvDLiSu66DT-11" edge="1">
          <mxGeometry x="-1" relative="1" as="geometry">
            <mxPoint x="440" y="580" as="targetPoint" />
          </mxGeometry>
        </mxCell>
        <mxCell id="BEmC0dXyyWvDLiSu66DT-14" value="Require user to retype password correctly" style="rounded=1;whiteSpace=wrap;html=1;arcSize=40;fontColor=#000000;fillColor=#ffffc0;strokeColor=#ff0000;fontSize=14;" parent="1" vertex="1">
          <mxGeometry x="760" y="480" width="160" height="40" as="geometry" />
        </mxCell>
        <mxCell id="BEmC0dXyyWvDLiSu66DT-15" value="" style="edgeStyle=orthogonalEdgeStyle;html=1;verticalAlign=bottom;endArrow=open;endSize=8;strokeColor=#ff0000;rounded=0;fontSize=14;entryX=1;entryY=0;entryDx=0;entryDy=0;entryPerimeter=0;" parent="1" source="BEmC0dXyyWvDLiSu66DT-14" target="BEmC0dXyyWvDLiSu66DT-25" edge="1">
          <mxGeometry relative="1" as="geometry">
            <mxPoint x="840" y="780" as="targetPoint" />
          </mxGeometry>
        </mxCell>
        <mxCell id="BEmC0dXyyWvDLiSu66DT-18" value="Change success" style="rhombus;whiteSpace=wrap;html=1;fontColor=#000000;fillColor=#ffffc0;strokeColor=#ff0000;fontSize=14;" parent="1" vertex="1">
          <mxGeometry x="360" y="580" width="160" height="40" as="geometry" />
        </mxCell>
        <mxCell id="BEmC0dXyyWvDLiSu66DT-19" value="no" style="edgeStyle=orthogonalEdgeStyle;html=1;align=left;verticalAlign=bottom;endArrow=open;endSize=8;strokeColor=#ff0000;rounded=0;fontSize=14;" parent="1" source="BEmC0dXyyWvDLiSu66DT-18" edge="1">
          <mxGeometry x="-1" relative="1" as="geometry">
            <mxPoint x="580" y="600" as="targetPoint" />
          </mxGeometry>
        </mxCell>
        <mxCell id="BEmC0dXyyWvDLiSu66DT-20" value="yes" style="edgeStyle=orthogonalEdgeStyle;html=1;align=left;verticalAlign=top;endArrow=open;endSize=8;strokeColor=#ff0000;rounded=0;fontSize=14;" parent="1" source="BEmC0dXyyWvDLiSu66DT-18" edge="1">
          <mxGeometry x="-1" relative="1" as="geometry">
            <mxPoint x="440" y="680" as="targetPoint" />
          </mxGeometry>
        </mxCell>
        <mxCell id="BEmC0dXyyWvDLiSu66DT-21" value="Popup error" style="rounded=1;whiteSpace=wrap;html=1;arcSize=40;fontColor=#000000;fillColor=#ffffc0;strokeColor=#ff0000;fontSize=14;" parent="1" vertex="1">
          <mxGeometry x="580" y="580" width="120" height="40" as="geometry" />
        </mxCell>
        <mxCell id="BEmC0dXyyWvDLiSu66DT-22" value="" style="edgeStyle=orthogonalEdgeStyle;html=1;verticalAlign=bottom;endArrow=open;endSize=8;strokeColor=#ff0000;rounded=0;fontSize=14;entryX=0.5;entryY=0;entryDx=0;entryDy=0;entryPerimeter=0;" parent="1" source="BEmC0dXyyWvDLiSu66DT-21" target="BEmC0dXyyWvDLiSu66DT-25" edge="1">
          <mxGeometry relative="1" as="geometry">
            <mxPoint x="640" y="680" as="targetPoint" />
          </mxGeometry>
        </mxCell>
        <mxCell id="BEmC0dXyyWvDLiSu66DT-23" value="Popup success message" style="rounded=1;whiteSpace=wrap;html=1;arcSize=40;fontColor=#000000;fillColor=#ffffc0;strokeColor=#ff0000;fontSize=14;" parent="1" vertex="1">
          <mxGeometry x="380" y="680" width="120" height="40" as="geometry" />
        </mxCell>
        <mxCell id="BEmC0dXyyWvDLiSu66DT-24" value="" style="edgeStyle=orthogonalEdgeStyle;html=1;verticalAlign=bottom;endArrow=open;endSize=8;strokeColor=#ff0000;rounded=0;fontSize=14;" parent="1" source="BEmC0dXyyWvDLiSu66DT-23" edge="1">
          <mxGeometry relative="1" as="geometry">
            <mxPoint x="440" y="790" as="targetPoint" />
          </mxGeometry>
        </mxCell>
        <mxCell id="BEmC0dXyyWvDLiSu66DT-25" value="" style="shape=line;html=1;strokeWidth=6;strokeColor=#ff0000;fontSize=14;" parent="1" vertex="1">
          <mxGeometry x="440" y="790" width="400" height="10" as="geometry" />
        </mxCell>
        <mxCell id="BEmC0dXyyWvDLiSu66DT-26" value="" style="edgeStyle=orthogonalEdgeStyle;html=1;verticalAlign=bottom;endArrow=open;endSize=8;strokeColor=#ff0000;rounded=0;fontSize=14;" parent="1" source="BEmC0dXyyWvDLiSu66DT-25" edge="1">
          <mxGeometry relative="1" as="geometry">
            <mxPoint x="640" y="870" as="targetPoint" />
          </mxGeometry>
        </mxCell>
        <mxCell id="BEmC0dXyyWvDLiSu66DT-27" value="" style="ellipse;html=1;shape=endState;fillColor=#000000;strokeColor=#ff0000;fontSize=14;" parent="1" vertex="1">
          <mxGeometry x="625" y="870" width="30" height="30" as="geometry" />
        </mxCell>
      </root>
    </mxGraphModel>
  </diagram>
  <diagram id="ZfOq1fog6MQ9IA5ytBr0" name="Activity&lt;JoinCourse&gt;">
    <mxGraphModel dx="905" dy="611" grid="1" gridSize="10" guides="1" tooltips="1" connect="1" arrows="1" fold="1" page="1" pageScale="1" pageWidth="850" pageHeight="1100" math="0" shadow="0">
      <root>
        <mxCell id="0" />
        <mxCell id="1" parent="0" />
        <mxCell id="YeXPISjwVmJ49HtLFXsA-1" value="UI" style="rounded=0;whiteSpace=wrap;html=1;" vertex="1" parent="1">
          <mxGeometry x="70" y="230" width="120" height="60" as="geometry" />
        </mxCell>
        <mxCell id="YeXPISjwVmJ49HtLFXsA-2" value="API" style="rounded=0;whiteSpace=wrap;html=1;" vertex="1" parent="1">
          <mxGeometry x="280" y="230" width="120" height="60" as="geometry" />
        </mxCell>
        <mxCell id="YeXPISjwVmJ49HtLFXsA-3" value="ENGINE" style="rounded=0;whiteSpace=wrap;html=1;" vertex="1" parent="1">
          <mxGeometry x="610" y="230" width="120" height="60" as="geometry" />
        </mxCell>
        <mxCell id="YeXPISjwVmJ49HtLFXsA-4" value="DB" style="rounded=0;whiteSpace=wrap;html=1;" vertex="1" parent="1">
          <mxGeometry x="540" y="450" width="120" height="60" as="geometry" />
        </mxCell>
        <mxCell id="YeXPISjwVmJ49HtLFXsA-5" value="APMQ" style="rounded=0;whiteSpace=wrap;html=1;" vertex="1" parent="1">
          <mxGeometry x="440" y="230" width="120" height="60" as="geometry" />
        </mxCell>
        <mxCell id="YeXPISjwVmJ49HtLFXsA-7" value="" style="ellipse;html=1;shape=startState;fillColor=#000000;strokeColor=#ff0000;" vertex="1" parent="1">
          <mxGeometry x="350" y="530" width="30" height="30" as="geometry" />
        </mxCell>
        <mxCell id="YeXPISjwVmJ49HtLFXsA-8" value="" style="edgeStyle=orthogonalEdgeStyle;html=1;verticalAlign=bottom;endArrow=open;endSize=8;strokeColor=#ff0000;rounded=0;" edge="1" source="YeXPISjwVmJ49HtLFXsA-7" parent="1">
          <mxGeometry relative="1" as="geometry">
            <mxPoint x="365" y="620" as="targetPoint" />
          </mxGeometry>
        </mxCell>
        <mxCell id="YeXPISjwVmJ49HtLFXsA-9" value="Bấm Join a course" style="rounded=1;whiteSpace=wrap;html=1;arcSize=40;fontColor=#000000;fillColor=#ffffc0;strokeColor=#ff0000;" vertex="1" parent="1">
          <mxGeometry x="305" y="620" width="120" height="40" as="geometry" />
        </mxCell>
        <mxCell id="YeXPISjwVmJ49HtLFXsA-10" value="" style="edgeStyle=orthogonalEdgeStyle;html=1;verticalAlign=bottom;endArrow=open;endSize=8;strokeColor=#ff0000;rounded=0;" edge="1" source="YeXPISjwVmJ49HtLFXsA-9" parent="1">
          <mxGeometry relative="1" as="geometry">
            <mxPoint x="410" y="760" as="targetPoint" />
          </mxGeometry>
        </mxCell>
        <mxCell id="YeXPISjwVmJ49HtLFXsA-11" value="Nhập mã lớp r bấm join" style="rounded=1;whiteSpace=wrap;html=1;arcSize=40;fontColor=#000000;fillColor=#ffffc0;strokeColor=#ff0000;" vertex="1" parent="1">
          <mxGeometry x="350" y="760" width="120" height="40" as="geometry" />
        </mxCell>
        <mxCell id="YeXPISjwVmJ49HtLFXsA-12" value="" style="edgeStyle=orthogonalEdgeStyle;html=1;verticalAlign=bottom;endArrow=open;endSize=8;strokeColor=#ff0000;rounded=0;" edge="1" source="YeXPISjwVmJ49HtLFXsA-11" parent="1">
          <mxGeometry relative="1" as="geometry">
            <mxPoint x="410" y="860" as="targetPoint" />
          </mxGeometry>
        </mxCell>
        <mxCell id="YeXPISjwVmJ49HtLFXsA-13" value="Show popup hỏi có muốn tham gia ko" style="rounded=1;whiteSpace=wrap;html=1;arcSize=40;fontColor=#000000;fillColor=#ffffc0;strokeColor=#ff0000;" vertex="1" parent="1">
          <mxGeometry x="360" y="860" width="120" height="40" as="geometry" />
        </mxCell>
        <mxCell id="YeXPISjwVmJ49HtLFXsA-14" value="" style="edgeStyle=orthogonalEdgeStyle;html=1;verticalAlign=bottom;endArrow=open;endSize=8;strokeColor=#ff0000;rounded=0;" edge="1" source="YeXPISjwVmJ49HtLFXsA-13" parent="1">
          <mxGeometry relative="1" as="geometry">
            <mxPoint x="420" y="960" as="targetPoint" />
          </mxGeometry>
        </mxCell>
        <mxCell id="YeXPISjwVmJ49HtLFXsA-15" value="Condition" style="rhombus;whiteSpace=wrap;html=1;fontColor=#000000;fillColor=#ffffc0;strokeColor=#ff0000;" vertex="1" parent="1">
          <mxGeometry x="380" y="960" width="80" height="40" as="geometry" />
        </mxCell>
        <mxCell id="YeXPISjwVmJ49HtLFXsA-16" value="no" style="edgeStyle=orthogonalEdgeStyle;html=1;align=left;verticalAlign=bottom;endArrow=open;endSize=8;strokeColor=#ff0000;rounded=0;" edge="1" source="YeXPISjwVmJ49HtLFXsA-15" parent="1">
          <mxGeometry x="-1" relative="1" as="geometry">
            <mxPoint x="560" y="980" as="targetPoint" />
          </mxGeometry>
        </mxCell>
        <mxCell id="YeXPISjwVmJ49HtLFXsA-17" value="yes" style="edgeStyle=orthogonalEdgeStyle;html=1;align=left;verticalAlign=top;endArrow=open;endSize=8;strokeColor=#ff0000;rounded=0;" edge="1" source="YeXPISjwVmJ49HtLFXsA-15" parent="1">
          <mxGeometry x="-1" relative="1" as="geometry">
            <mxPoint x="420" y="1060" as="targetPoint" />
          </mxGeometry>
        </mxCell>
        <mxCell id="YeXPISjwVmJ49HtLFXsA-18" value="Gọi API để người dùng join course đó" style="rounded=1;whiteSpace=wrap;html=1;arcSize=40;fontColor=#000000;fillColor=#ffffc0;strokeColor=#ff0000;" vertex="1" parent="1">
          <mxGeometry x="360" y="1060" width="120" height="40" as="geometry" />
        </mxCell>
        <mxCell id="YeXPISjwVmJ49HtLFXsA-19" value="" style="edgeStyle=orthogonalEdgeStyle;html=1;verticalAlign=bottom;endArrow=open;endSize=8;strokeColor=#ff0000;rounded=0;" edge="1" source="YeXPISjwVmJ49HtLFXsA-18" parent="1">
          <mxGeometry relative="1" as="geometry">
            <mxPoint x="420" y="1160" as="targetPoint" />
          </mxGeometry>
        </mxCell>
        <mxCell id="YeXPISjwVmJ49HtLFXsA-20" value="Vào trang của course đó" style="rounded=1;whiteSpace=wrap;html=1;arcSize=40;fontColor=#000000;fillColor=#ffffc0;strokeColor=#ff0000;" vertex="1" parent="1">
          <mxGeometry x="360" y="1160" width="120" height="40" as="geometry" />
        </mxCell>
        <mxCell id="YeXPISjwVmJ49HtLFXsA-21" value="" style="edgeStyle=orthogonalEdgeStyle;html=1;verticalAlign=bottom;endArrow=open;endSize=8;strokeColor=#ff0000;rounded=0;" edge="1" source="YeXPISjwVmJ49HtLFXsA-20" parent="1">
          <mxGeometry relative="1" as="geometry">
            <mxPoint x="420" y="1260" as="targetPoint" />
          </mxGeometry>
        </mxCell>
        <mxCell id="YeXPISjwVmJ49HtLFXsA-22" value="Quay lại trang danh sách course" style="rounded=1;whiteSpace=wrap;html=1;arcSize=40;fontColor=#000000;fillColor=#ffffc0;strokeColor=#ff0000;" vertex="1" parent="1">
          <mxGeometry x="560" y="960" width="120" height="40" as="geometry" />
        </mxCell>
        <mxCell id="YeXPISjwVmJ49HtLFXsA-23" value="" style="edgeStyle=orthogonalEdgeStyle;html=1;verticalAlign=bottom;endArrow=open;endSize=8;strokeColor=#ff0000;rounded=0;" edge="1" source="YeXPISjwVmJ49HtLFXsA-22" parent="1">
          <mxGeometry relative="1" as="geometry">
            <mxPoint x="620" y="1260" as="targetPoint" />
          </mxGeometry>
        </mxCell>
        <mxCell id="YeXPISjwVmJ49HtLFXsA-24" value="Copy link dán vào trình duyệt" style="rounded=1;whiteSpace=wrap;html=1;arcSize=40;fontColor=#000000;fillColor=#ffffc0;strokeColor=#ff0000;" vertex="1" parent="1">
          <mxGeometry x="540" y="680" width="120" height="40" as="geometry" />
        </mxCell>
        <mxCell id="YeXPISjwVmJ49HtLFXsA-25" value="" style="edgeStyle=orthogonalEdgeStyle;html=1;verticalAlign=bottom;endArrow=open;endSize=8;strokeColor=#ff0000;rounded=0;entryX=1;entryY=0.5;entryDx=0;entryDy=0;" edge="1" source="YeXPISjwVmJ49HtLFXsA-24" parent="1" target="YeXPISjwVmJ49HtLFXsA-13">
          <mxGeometry relative="1" as="geometry">
            <mxPoint x="600" y="780" as="targetPoint" />
          </mxGeometry>
        </mxCell>
        <mxCell id="YeXPISjwVmJ49HtLFXsA-26" value="" style="ellipse;html=1;shape=startState;fillColor=#000000;strokeColor=#ff0000;" vertex="1" parent="1">
          <mxGeometry x="585" y="590" width="30" height="30" as="geometry" />
        </mxCell>
        <mxCell id="YeXPISjwVmJ49HtLFXsA-27" value="" style="edgeStyle=orthogonalEdgeStyle;html=1;verticalAlign=bottom;endArrow=open;endSize=8;strokeColor=#ff0000;rounded=0;" edge="1" source="YeXPISjwVmJ49HtLFXsA-26" parent="1">
          <mxGeometry relative="1" as="geometry">
            <mxPoint x="600" y="680" as="targetPoint" />
          </mxGeometry>
        </mxCell>
        <mxCell id="YeXPISjwVmJ49HtLFXsA-28" value="" style="shape=line;html=1;strokeWidth=6;strokeColor=#ff0000;" vertex="1" parent="1">
          <mxGeometry x="420" y="1260" width="210" height="10" as="geometry" />
        </mxCell>
        <mxCell id="YeXPISjwVmJ49HtLFXsA-29" value="" style="edgeStyle=orthogonalEdgeStyle;html=1;verticalAlign=bottom;endArrow=open;endSize=8;strokeColor=#ff0000;rounded=0;" edge="1" source="YeXPISjwVmJ49HtLFXsA-28" parent="1">
          <mxGeometry relative="1" as="geometry">
            <mxPoint x="520" y="1340" as="targetPoint" />
          </mxGeometry>
        </mxCell>
        <mxCell id="YeXPISjwVmJ49HtLFXsA-30" value="" style="ellipse;html=1;shape=endState;fillColor=#000000;strokeColor=#ff0000;" vertex="1" parent="1">
          <mxGeometry x="510" y="1340" width="30" height="30" as="geometry" />
        </mxCell>
      </root>
    </mxGraphModel>
  </diagram>
  <diagram id="tM3i8V1XXFBCtbw2phth" name="DB Overview">
    <mxGraphModel dx="905" dy="611" grid="0" gridSize="10" guides="1" tooltips="1" connect="1" arrows="1" fold="1" page="1" pageScale="1" pageWidth="850" pageHeight="1100" math="0" shadow="0">
      <root>
        <mxCell id="0" />
        <mxCell id="1" parent="0" />
        <mxCell id="4_ZyRG6fvuMpxXGU0xWo-2" value="User" style="rounded=0;whiteSpace=wrap;html=1;" vertex="1" parent="1">
          <mxGeometry x="50" y="70" width="220" height="120" as="geometry" />
        </mxCell>
        <mxCell id="4_ZyRG6fvuMpxXGU0xWo-3" value="Document" style="html=1;dashed=0;whiteSpace=wrap;" vertex="1" parent="1">
          <mxGeometry x="520" y="70" width="240" height="120" as="geometry" />
        </mxCell>
        <mxCell id="4_ZyRG6fvuMpxXGU0xWo-4" value="Course" style="html=1;dashed=0;whiteSpace=wrap;" vertex="1" parent="1">
          <mxGeometry x="50" y="340" width="220" height="140" as="geometry" />
        </mxCell>
        <mxCell id="4_ZyRG6fvuMpxXGU0xWo-5" value="Exercise" style="html=1;dashed=0;whiteSpace=wrap;" vertex="1" parent="1">
          <mxGeometry x="510" y="350" width="260" height="130" as="geometry" />
        </mxCell>
        <mxCell id="4_ZyRG6fvuMpxXGU0xWo-7" value="" style="endArrow=none;dashed=1;html=1;rounded=0;entryX=0.5;entryY=1;entryDx=0;entryDy=0;exitX=0.5;exitY=0;exitDx=0;exitDy=0;" edge="1" parent="1" source="4_ZyRG6fvuMpxXGU0xWo-4" target="4_ZyRG6fvuMpxXGU0xWo-2">
          <mxGeometry width="50" height="50" relative="1" as="geometry">
            <mxPoint x="260" y="410" as="sourcePoint" />
            <mxPoint x="310" y="360" as="targetPoint" />
          </mxGeometry>
        </mxCell>
        <mxCell id="4_ZyRG6fvuMpxXGU0xWo-8" value="PlpCourseAuthorization&lt;br&gt;(n-n)" style="edgeLabel;html=1;align=center;verticalAlign=middle;resizable=0;points=[];" vertex="1" connectable="0" parent="4_ZyRG6fvuMpxXGU0xWo-7">
          <mxGeometry x="0.1067" y="-1" relative="1" as="geometry">
            <mxPoint as="offset" />
          </mxGeometry>
        </mxCell>
        <mxCell id="4_ZyRG6fvuMpxXGU0xWo-12" value="" style="endArrow=none;dashed=1;html=1;rounded=0;exitX=1;exitY=0.5;exitDx=0;exitDy=0;" edge="1" parent="1" source="4_ZyRG6fvuMpxXGU0xWo-2" target="4_ZyRG6fvuMpxXGU0xWo-3">
          <mxGeometry width="50" height="50" relative="1" as="geometry">
            <mxPoint x="380" y="390" as="sourcePoint" />
            <mxPoint x="430" y="340" as="targetPoint" />
          </mxGeometry>
        </mxCell>
        <mxCell id="4_ZyRG6fvuMpxXGU0xWo-13" value="CreatorId field&lt;br&gt;(1-n)" style="edgeLabel;html=1;align=center;verticalAlign=middle;resizable=0;points=[];" vertex="1" connectable="0" parent="4_ZyRG6fvuMpxXGU0xWo-12">
          <mxGeometry x="-0.208" y="-2" relative="1" as="geometry">
            <mxPoint as="offset" />
          </mxGeometry>
        </mxCell>
        <mxCell id="4_ZyRG6fvuMpxXGU0xWo-14" value="DocumentExercise&lt;br&gt;(n-n)" style="endArrow=none;dashed=1;html=1;rounded=0;entryX=0.5;entryY=1;entryDx=0;entryDy=0;" edge="1" parent="1" source="4_ZyRG6fvuMpxXGU0xWo-5" target="4_ZyRG6fvuMpxXGU0xWo-3">
          <mxGeometry width="50" height="50" relative="1" as="geometry">
            <mxPoint x="390" y="390" as="sourcePoint" />
            <mxPoint x="440" y="340" as="targetPoint" />
          </mxGeometry>
        </mxCell>
        <mxCell id="4_ZyRG6fvuMpxXGU0xWo-15" value="" style="endArrow=none;dashed=1;html=1;rounded=0;exitX=1.005;exitY=0.611;exitDx=0;exitDy=0;exitPerimeter=0;entryX=-0.008;entryY=0.573;entryDx=0;entryDy=0;entryPerimeter=0;" edge="1" parent="1" source="4_ZyRG6fvuMpxXGU0xWo-4" target="4_ZyRG6fvuMpxXGU0xWo-5">
          <mxGeometry width="50" height="50" relative="1" as="geometry">
            <mxPoint x="390" y="390" as="sourcePoint" />
            <mxPoint x="440" y="340" as="targetPoint" />
          </mxGeometry>
        </mxCell>
        <mxCell id="4_ZyRG6fvuMpxXGU0xWo-16" value="CourseExercise&lt;br&gt;(n-n)" style="edgeLabel;html=1;align=center;verticalAlign=middle;resizable=0;points=[];" vertex="1" connectable="0" parent="4_ZyRG6fvuMpxXGU0xWo-15">
          <mxGeometry x="-0.3167" y="2" relative="1" as="geometry">
            <mxPoint as="offset" />
          </mxGeometry>
        </mxCell>
      </root>
    </mxGraphModel>
  </diagram>
  <diagram id="NeXqGmcAqM1NeDmboaK_" name="CloudStorageExample">
    <mxGraphModel dx="1060" dy="679" grid="0" gridSize="10" guides="1" tooltips="1" connect="1" arrows="1" fold="1" page="1" pageScale="1" pageWidth="850" pageHeight="1100" math="0" shadow="0">
      <root>
        <mxCell id="0" />
        <mxCell id="1" parent="0" />
        <mxCell id="8PX3PiDmEqda4TX75EaV-1" value="" style="ellipse;shape=cloud;whiteSpace=wrap;html=1;" vertex="1" parent="1">
          <mxGeometry x="220" y="110" width="275" height="140" as="geometry" />
        </mxCell>
        <mxCell id="8PX3PiDmEqda4TX75EaV-2" value="Cloud storage" style="text;html=1;strokeColor=none;fillColor=none;align=center;verticalAlign=middle;whiteSpace=wrap;rounded=0;" vertex="1" parent="1">
          <mxGeometry x="334.5" y="165" width="60" height="30" as="geometry" />
        </mxCell>
        <mxCell id="8PX3PiDmEqda4TX75EaV-3" value="Your machine" style="sketch=0;outlineConnect=0;fontColor=#232F3E;gradientColor=none;strokeColor=#232F3E;fillColor=#ffffff;dashed=0;verticalLabelPosition=bottom;verticalAlign=top;align=center;html=1;fontSize=12;fontStyle=0;aspect=fixed;shape=mxgraph.aws4.resourceIcon;resIcon=mxgraph.aws4.client;" vertex="1" parent="1">
          <mxGeometry x="334.5" y="420" width="60" height="60" as="geometry" />
        </mxCell>
        <mxCell id="8PX3PiDmEqda4TX75EaV-9" value="" style="endArrow=classic;html=1;rounded=0;" edge="1" parent="1">
          <mxGeometry width="50" height="50" relative="1" as="geometry">
            <mxPoint x="350" y="420" as="sourcePoint" />
            <mxPoint x="350" y="250" as="targetPoint" />
          </mxGeometry>
        </mxCell>
        <mxCell id="8PX3PiDmEqda4TX75EaV-10" value="" style="endArrow=classic;html=1;rounded=0;" edge="1" parent="1">
          <mxGeometry width="50" height="50" relative="1" as="geometry">
            <mxPoint x="378" y="250" as="sourcePoint" />
            <mxPoint x="378" y="420" as="targetPoint" />
          </mxGeometry>
        </mxCell>
        <mxCell id="8PX3PiDmEqda4TX75EaV-11" value="1. you request&lt;br&gt;to download the file by clicking the download link" style="text;html=1;strokeColor=none;fillColor=none;align=center;verticalAlign=middle;whiteSpace=wrap;rounded=0;" vertex="1" parent="1">
          <mxGeometry x="230" y="280" width="120" height="120" as="geometry" />
        </mxCell>
        <mxCell id="8PX3PiDmEqda4TX75EaV-12" value="2. The cloud storage read your request and send you the file you requested" style="text;html=1;strokeColor=none;fillColor=none;align=center;verticalAlign=middle;whiteSpace=wrap;rounded=0;" vertex="1" parent="1">
          <mxGeometry x="390" y="325" width="190" height="30" as="geometry" />
        </mxCell>
        <mxCell id="8PX3PiDmEqda4TX75EaV-19" value="" style="ellipse;shape=cloud;whiteSpace=wrap;html=1;" vertex="1" parent="1">
          <mxGeometry x="890" y="110" width="275" height="140" as="geometry" />
        </mxCell>
        <mxCell id="8PX3PiDmEqda4TX75EaV-20" value="Cloud storage" style="text;html=1;strokeColor=none;fillColor=none;align=center;verticalAlign=middle;whiteSpace=wrap;rounded=0;" vertex="1" parent="1">
          <mxGeometry x="1004.5" y="165" width="60" height="30" as="geometry" />
        </mxCell>
        <mxCell id="8PX3PiDmEqda4TX75EaV-21" value="Your machine" style="sketch=0;outlineConnect=0;fontColor=#232F3E;gradientColor=none;strokeColor=#232F3E;fillColor=#ffffff;dashed=0;verticalLabelPosition=bottom;verticalAlign=top;align=center;html=1;fontSize=12;fontStyle=0;aspect=fixed;shape=mxgraph.aws4.resourceIcon;resIcon=mxgraph.aws4.client;" vertex="1" parent="1">
          <mxGeometry x="1004.5" y="420" width="60" height="60" as="geometry" />
        </mxCell>
        <mxCell id="8PX3PiDmEqda4TX75EaV-22" value="" style="endArrow=classic;html=1;rounded=0;" edge="1" parent="1">
          <mxGeometry width="50" height="50" relative="1" as="geometry">
            <mxPoint x="1020" y="420" as="sourcePoint" />
            <mxPoint x="1020" y="250" as="targetPoint" />
          </mxGeometry>
        </mxCell>
        <mxCell id="8PX3PiDmEqda4TX75EaV-23" value="" style="endArrow=classic;html=1;rounded=0;" edge="1" parent="1">
          <mxGeometry width="50" height="50" relative="1" as="geometry">
            <mxPoint x="1048" y="250" as="sourcePoint" />
            <mxPoint x="1048" y="420" as="targetPoint" />
          </mxGeometry>
        </mxCell>
        <mxCell id="8PX3PiDmEqda4TX75EaV-24" value="1. You send the cloud storage the file you want to upload" style="text;html=1;strokeColor=none;fillColor=none;align=center;verticalAlign=middle;whiteSpace=wrap;rounded=0;" vertex="1" parent="1">
          <mxGeometry x="900" y="280" width="120" height="120" as="geometry" />
        </mxCell>
        <mxCell id="8PX3PiDmEqda4TX75EaV-25" value="2. The cloud storage receive your file and store on it&#39;s storage" style="text;html=1;strokeColor=none;fillColor=none;align=center;verticalAlign=middle;whiteSpace=wrap;rounded=0;" vertex="1" parent="1">
          <mxGeometry x="1060" y="325" width="190" height="30" as="geometry" />
        </mxCell>
      </root>
    </mxGraphModel>
  </diagram>
  <diagram id="SCa_QaPVUCaUkTcaN7Nv" name="Activity&lt;AddFile&gt;">
    <mxGraphModel dx="954" dy="611" grid="0" gridSize="10" guides="1" tooltips="1" connect="1" arrows="1" fold="1" page="1" pageScale="1" pageWidth="850" pageHeight="1100" math="0" shadow="0">
      <root>
        <mxCell id="0" />
        <mxCell id="1" parent="0" />
      </root>
    </mxGraphModel>
  </diagram>
  <diagram id="q6EryNUR2GoZ43GvXHGp" name="UI&lt;CoursePage&gt;">
    <mxGraphModel dx="897" dy="623" grid="1" gridSize="10" guides="1" tooltips="1" connect="1" arrows="1" fold="1" page="1" pageScale="1" pageWidth="850" pageHeight="1100" math="0" shadow="0">
      <root>
        <mxCell id="0" />
        <mxCell id="1" parent="0" />
        <mxCell id="_1mzaYfNNiQbd5UyX78m-1" value="" style="rounded=0;whiteSpace=wrap;html=1;" vertex="1" parent="1">
          <mxGeometry x="90" y="90" width="530" height="450" as="geometry" />
        </mxCell>
        <mxCell id="_1mzaYfNNiQbd5UyX78m-2" value="" style="rounded=0;whiteSpace=wrap;html=1;" vertex="1" parent="1">
          <mxGeometry x="90" y="90" width="530" height="30" as="geometry" />
        </mxCell>
        <mxCell id="_1mzaYfNNiQbd5UyX78m-3" value="" style="rounded=0;whiteSpace=wrap;html=1;" vertex="1" parent="1">
          <mxGeometry x="90" y="120" width="530" height="30" as="geometry" />
        </mxCell>
        <mxCell id="_1mzaYfNNiQbd5UyX78m-4" value="navbar" style="text;html=1;strokeColor=none;fillColor=none;align=center;verticalAlign=middle;whiteSpace=wrap;rounded=0;" vertex="1" parent="1">
          <mxGeometry x="180" y="90" width="60" height="30" as="geometry" />
        </mxCell>
        <mxCell id="_1mzaYfNNiQbd5UyX78m-5" value="tabs" style="text;html=1;strokeColor=none;fillColor=none;align=center;verticalAlign=middle;whiteSpace=wrap;rounded=0;" vertex="1" parent="1">
          <mxGeometry x="100" y="120" width="60" height="30" as="geometry" />
        </mxCell>
        <mxCell id="_1mzaYfNNiQbd5UyX78m-6" value="" style="rounded=0;whiteSpace=wrap;html=1;" vertex="1" parent="1">
          <mxGeometry x="90" y="590" width="280" height="150" as="geometry" />
        </mxCell>
        <mxCell id="_1mzaYfNNiQbd5UyX78m-20" value="" style="edgeStyle=orthogonalEdgeStyle;rounded=0;orthogonalLoop=1;jettySize=auto;html=1;" edge="1" parent="1" source="_1mzaYfNNiQbd5UyX78m-7" target="_1mzaYfNNiQbd5UyX78m-16">
          <mxGeometry relative="1" as="geometry" />
        </mxCell>
        <mxCell id="_1mzaYfNNiQbd5UyX78m-7" value="Generals" style="text;html=1;strokeColor=none;fillColor=none;align=center;verticalAlign=middle;whiteSpace=wrap;rounded=0;" vertex="1" parent="1">
          <mxGeometry x="90" y="560" width="60" height="30" as="geometry" />
        </mxCell>
        <mxCell id="_1mzaYfNNiQbd5UyX78m-11" value="" style="group" vertex="1" connectable="0" parent="1">
          <mxGeometry x="140" y="650" width="230" height="30" as="geometry" />
        </mxCell>
        <mxCell id="_1mzaYfNNiQbd5UyX78m-8" value="" style="rounded=0;whiteSpace=wrap;html=1;" vertex="1" parent="_1mzaYfNNiQbd5UyX78m-11">
          <mxGeometry width="230" height="30" as="geometry" />
        </mxCell>
        <mxCell id="_1mzaYfNNiQbd5UyX78m-10" value="Text" style="text;html=1;strokeColor=none;fillColor=none;align=center;verticalAlign=middle;whiteSpace=wrap;rounded=0;" vertex="1" parent="_1mzaYfNNiQbd5UyX78m-11">
          <mxGeometry width="49.285714285714285" height="30" as="geometry" />
        </mxCell>
        <mxCell id="_1mzaYfNNiQbd5UyX78m-12" value="wallpaper" style="rounded=0;whiteSpace=wrap;html=1;" vertex="1" parent="1">
          <mxGeometry x="90" y="590" width="280" height="60" as="geometry" />
        </mxCell>
        <mxCell id="_1mzaYfNNiQbd5UyX78m-13" value="code" style="rounded=0;whiteSpace=wrap;html=1;" vertex="1" parent="1">
          <mxGeometry x="90" y="650" width="50" height="30" as="geometry" />
        </mxCell>
        <mxCell id="_1mzaYfNNiQbd5UyX78m-14" value="" style="group" vertex="1" connectable="0" parent="1">
          <mxGeometry x="140" y="680" width="230" height="30" as="geometry" />
        </mxCell>
        <mxCell id="_1mzaYfNNiQbd5UyX78m-15" value="" style="rounded=0;whiteSpace=wrap;html=1;" vertex="1" parent="_1mzaYfNNiQbd5UyX78m-14">
          <mxGeometry width="230" height="30" as="geometry" />
        </mxCell>
        <mxCell id="_1mzaYfNNiQbd5UyX78m-16" value="Text" style="text;html=1;strokeColor=none;fillColor=none;align=center;verticalAlign=middle;whiteSpace=wrap;rounded=0;" vertex="1" parent="_1mzaYfNNiQbd5UyX78m-14">
          <mxGeometry width="49.285714285714285" height="30" as="geometry" />
        </mxCell>
        <mxCell id="_1mzaYfNNiQbd5UyX78m-17" value="" style="group" vertex="1" connectable="0" parent="1">
          <mxGeometry x="140" y="710" width="230" height="30" as="geometry" />
        </mxCell>
        <mxCell id="_1mzaYfNNiQbd5UyX78m-18" value="" style="rounded=0;whiteSpace=wrap;html=1;" vertex="1" parent="_1mzaYfNNiQbd5UyX78m-17">
          <mxGeometry width="230" height="30" as="geometry" />
        </mxCell>
        <mxCell id="_1mzaYfNNiQbd5UyX78m-19" value="Text" style="text;html=1;strokeColor=none;fillColor=none;align=center;verticalAlign=middle;whiteSpace=wrap;rounded=0;" vertex="1" parent="_1mzaYfNNiQbd5UyX78m-17">
          <mxGeometry width="49.285714285714285" height="30" as="geometry" />
        </mxCell>
        <mxCell id="_1mzaYfNNiQbd5UyX78m-21" value="" style="rounded=0;whiteSpace=wrap;html=1;" vertex="1" parent="1">
          <mxGeometry x="90" y="820" width="280" height="150" as="geometry" />
        </mxCell>
        <mxCell id="_1mzaYfNNiQbd5UyX78m-22" value="" style="edgeStyle=orthogonalEdgeStyle;rounded=0;orthogonalLoop=1;jettySize=auto;html=1;" edge="1" source="_1mzaYfNNiQbd5UyX78m-23" target="_1mzaYfNNiQbd5UyX78m-31" parent="1">
          <mxGeometry relative="1" as="geometry" />
        </mxCell>
        <mxCell id="_1mzaYfNNiQbd5UyX78m-23" value="Exercise" style="text;html=1;strokeColor=none;fillColor=none;align=center;verticalAlign=middle;whiteSpace=wrap;rounded=0;" vertex="1" parent="1">
          <mxGeometry x="90" y="790" width="60" height="30" as="geometry" />
        </mxCell>
        <mxCell id="_1mzaYfNNiQbd5UyX78m-24" value="" style="group" vertex="1" connectable="0" parent="1">
          <mxGeometry x="140" y="880" width="230" height="30" as="geometry" />
        </mxCell>
        <mxCell id="_1mzaYfNNiQbd5UyX78m-25" value="" style="rounded=0;whiteSpace=wrap;html=1;" vertex="1" parent="_1mzaYfNNiQbd5UyX78m-24">
          <mxGeometry width="230" height="30" as="geometry" />
        </mxCell>
        <mxCell id="_1mzaYfNNiQbd5UyX78m-26" value="Text" style="text;html=1;strokeColor=none;fillColor=none;align=center;verticalAlign=middle;whiteSpace=wrap;rounded=0;" vertex="1" parent="_1mzaYfNNiQbd5UyX78m-24">
          <mxGeometry width="49.285714285714285" height="30" as="geometry" />
        </mxCell>
        <mxCell id="_1mzaYfNNiQbd5UyX78m-27" value="wallpaper" style="rounded=0;whiteSpace=wrap;html=1;" vertex="1" parent="1">
          <mxGeometry x="90" y="820" width="280" height="60" as="geometry" />
        </mxCell>
        <mxCell id="_1mzaYfNNiQbd5UyX78m-29" value="" style="group" vertex="1" connectable="0" parent="1">
          <mxGeometry x="140" y="910" width="230" height="30" as="geometry" />
        </mxCell>
        <mxCell id="_1mzaYfNNiQbd5UyX78m-30" value="" style="rounded=0;whiteSpace=wrap;html=1;" vertex="1" parent="_1mzaYfNNiQbd5UyX78m-29">
          <mxGeometry width="230" height="30" as="geometry" />
        </mxCell>
        <mxCell id="_1mzaYfNNiQbd5UyX78m-31" value="Text" style="text;html=1;strokeColor=none;fillColor=none;align=center;verticalAlign=middle;whiteSpace=wrap;rounded=0;" vertex="1" parent="_1mzaYfNNiQbd5UyX78m-29">
          <mxGeometry width="49.285714285714285" height="30" as="geometry" />
        </mxCell>
        <mxCell id="_1mzaYfNNiQbd5UyX78m-32" value="" style="group" vertex="1" connectable="0" parent="1">
          <mxGeometry x="140" y="940" width="230" height="30" as="geometry" />
        </mxCell>
        <mxCell id="_1mzaYfNNiQbd5UyX78m-33" value="" style="rounded=0;whiteSpace=wrap;html=1;" vertex="1" parent="_1mzaYfNNiQbd5UyX78m-32">
          <mxGeometry width="230" height="30" as="geometry" />
        </mxCell>
        <mxCell id="_1mzaYfNNiQbd5UyX78m-34" value="Text" style="text;html=1;strokeColor=none;fillColor=none;align=center;verticalAlign=middle;whiteSpace=wrap;rounded=0;" vertex="1" parent="_1mzaYfNNiQbd5UyX78m-32">
          <mxGeometry width="49.285714285714285" height="30" as="geometry" />
        </mxCell>
        <mxCell id="_1mzaYfNNiQbd5UyX78m-35" value="" style="rounded=0;whiteSpace=wrap;html=1;" vertex="1" parent="1">
          <mxGeometry x="90" y="880" width="50" height="30" as="geometry" />
        </mxCell>
        <mxCell id="_1mzaYfNNiQbd5UyX78m-36" value="" style="rounded=0;whiteSpace=wrap;html=1;" vertex="1" parent="1">
          <mxGeometry x="90" y="150" width="530" height="300" as="geometry" />
        </mxCell>
        <mxCell id="_1mzaYfNNiQbd5UyX78m-37" value="main" style="text;html=1;strokeColor=none;fillColor=none;align=center;verticalAlign=middle;whiteSpace=wrap;rounded=0;" vertex="1" parent="1">
          <mxGeometry x="330" y="285" width="60" height="30" as="geometry" />
        </mxCell>
        <mxCell id="_1mzaYfNNiQbd5UyX78m-38" value="" style="rounded=0;whiteSpace=wrap;html=1;" vertex="1" parent="1">
          <mxGeometry x="500" y="750" width="310" height="100" as="geometry" />
        </mxCell>
        <mxCell id="_1mzaYfNNiQbd5UyX78m-39" value="Lession 1: What is computer science" style="text;html=1;strokeColor=none;fillColor=none;align=left;verticalAlign=middle;whiteSpace=wrap;rounded=0;fontStyle=1" vertex="1" parent="1">
          <mxGeometry x="520" y="750" width="280" height="30" as="geometry" />
        </mxCell>
        <mxCell id="_1mzaYfNNiQbd5UyX78m-41" value="This lession provides basic knowledge about computer science and some overview of what the whole course consists of" style="text;html=1;strokeColor=none;fillColor=none;align=left;verticalAlign=middle;whiteSpace=wrap;rounded=0;" vertex="1" parent="1">
          <mxGeometry x="520" y="780" width="280" height="30" as="geometry" />
        </mxCell>
        <mxCell id="_1mzaYfNNiQbd5UyX78m-42" value="Customize Doument" style="rounded=0;whiteSpace=wrap;html=1;" vertex="1" parent="1">
          <mxGeometry x="680" y="820" width="120" height="20" as="geometry" />
        </mxCell>
        <mxCell id="_1mzaYfNNiQbd5UyX78m-43" value="" style="rounded=0;whiteSpace=wrap;html=1;" vertex="1" parent="1">
          <mxGeometry x="500" y="870" width="310" height="160" as="geometry" />
        </mxCell>
        <mxCell id="_1mzaYfNNiQbd5UyX78m-44" value="Warmup 1: Implement binary search algorithm" style="text;html=1;strokeColor=none;fillColor=none;align=left;verticalAlign=middle;whiteSpace=wrap;rounded=0;fontStyle=1" vertex="1" parent="1">
          <mxGeometry x="520" y="870" width="270" height="30" as="geometry" />
        </mxCell>
        <mxCell id="_1mzaYfNNiQbd5UyX78m-45" value="No description provided" style="text;html=1;strokeColor=none;fillColor=none;align=left;verticalAlign=middle;whiteSpace=wrap;rounded=0;" vertex="1" parent="1">
          <mxGeometry x="520" y="900" width="290" height="30" as="geometry" />
        </mxCell>
        <mxCell id="_1mzaYfNNiQbd5UyX78m-46" value="Customize Doument" style="rounded=0;whiteSpace=wrap;html=1;" vertex="1" parent="1">
          <mxGeometry x="680" y="1000" width="120" height="20" as="geometry" />
        </mxCell>
        <mxCell id="_1mzaYfNNiQbd5UyX78m-47" value="Exercise status: Not submitted" style="text;html=1;strokeColor=none;fillColor=none;align=left;verticalAlign=middle;whiteSpace=wrap;rounded=0;fontColor=#FF0000;" vertex="1" parent="1">
          <mxGeometry x="520" y="935" width="280" height="30" as="geometry" />
        </mxCell>
        <mxCell id="_1mzaYfNNiQbd5UyX78m-48" value="Deadline: 15/04/2023" style="text;html=1;strokeColor=none;fillColor=none;align=left;verticalAlign=middle;whiteSpace=wrap;rounded=0;" vertex="1" parent="1">
          <mxGeometry x="520" y="965" width="260" height="30" as="geometry" />
        </mxCell>
        <mxCell id="_1mzaYfNNiQbd5UyX78m-49" value="" style="endArrow=classic;html=1;rounded=0;exitX=1;exitY=0.5;exitDx=0;exitDy=0;entryX=0;entryY=0.5;entryDx=0;entryDy=0;" edge="1" parent="1" source="_1mzaYfNNiQbd5UyX78m-8" target="_1mzaYfNNiQbd5UyX78m-38">
          <mxGeometry width="50" height="50" relative="1" as="geometry">
            <mxPoint x="510" y="940" as="sourcePoint" />
            <mxPoint x="560" y="890" as="targetPoint" />
          </mxGeometry>
        </mxCell>
        <mxCell id="_1mzaYfNNiQbd5UyX78m-50" value="" style="endArrow=classic;html=1;rounded=0;exitX=1;exitY=0.5;exitDx=0;exitDy=0;entryX=0;entryY=0.5;entryDx=0;entryDy=0;" edge="1" parent="1" source="_1mzaYfNNiQbd5UyX78m-27" target="_1mzaYfNNiQbd5UyX78m-43">
          <mxGeometry width="50" height="50" relative="1" as="geometry">
            <mxPoint x="510" y="940" as="sourcePoint" />
            <mxPoint x="490" y="950" as="targetPoint" />
          </mxGeometry>
        </mxCell>
      </root>
    </mxGraphModel>
  </diagram>
</mxfile>